<?xml version="1.0" encoding="utf-8"?>
<svg xmlns="http://www.w3.org/2000/svg" stroke-width="0.566929" viewBox="54.8 -563.68 1258.4 371.36" width="1258.4pt" height="371.36pt" fill="none" x="54.8pt" version="1.1" y="-563.68pt" stroke-miterlimit="10.000000">
 <defs>
  <clipPath id="clippath131990188084696">
   <path d="M0 -0L1368 -0L1368 -756L0 -756Z"/>
  </clipPath>
 </defs>
 <g transform="matrix(1.000000,0.000000,0.000000,1.000000,50.400000,-187.920000)">
  <g clip-path="url(#clippath131990188084696)">
   <g transform="matrix(1.000000,0.000000,0.000000,1.000000,63.360000,-63.360000)">
    <g>
     <path d="M-26.696 -5.05096M-18.121 -17.9444C-17.8111 -17.9444 -17.5425 -17.903 -17.2738 -17.7791C-17.0052 -17.6964 -16.8606 -17.6344 -16.8193 -17.6344C-16.6746 -17.6344 -16.592 -17.7791 -16.592 -18.0683C-16.592 -18.337 -16.7779 -18.7089 -17.1499 -19.1841C-17.5218 -19.6387 -17.8937 -19.866 -18.2863 -19.866C-19.4641 -19.866 -20.7038 -19.2668 -22.0469 -18.027C-23.39 -16.8286 -24.4851 -15.3616 -25.3736 -13.6466C-26.262 -11.9316 -26.696 -10.3819 -26.696 -8.9975C-26.696 -8.10901 -26.3034 -7.28251 -25.5182 -6.53866C-24.733 -5.77415 -23.9272 -5.40222 -23.142 -5.40222C-22.3155 -5.40222 -21.489 -5.73282 -20.6418 -6.41469C-19.7947 -7.07589 -19.0302 -7.98504 -18.3483 -9.12148C-18.4929 -8.68756 -18.6582 -8.10901 -18.8855 -7.40649C-19.1128 -6.72462 -19.3194 -6.04276 -19.5054 -5.38156C-19.712 -4.72036 -19.8153 -4.2038 -19.8153 -3.81121C-19.8153 -3.41862 -19.6294 -3.212 -19.2988 -3.212C-18.9268 -3.212 -18.4103 -4.24512 -17.7284 -6.31137C-17.0466 -8.37763 -16.6953 -9.67936 -16.6953 -10.2579C-16.6953 -10.7951 -16.8606 -11.291 -17.1499 -11.7043C-17.4805 -12.1382 -17.8731 -12.3448 -18.369 -12.3448C-19.2574 -12.3448 -20.0013 -12.2828 -20.6005 -12.1589C-21.1997 -12.0142 -21.489 -11.8489 -21.489 -11.6216C-21.489 -11.4357 -21.365 -11.2497 -21.0964 -11.0431C-20.8278 -10.8571 -20.5179 -10.7538 -20.1459 -10.7538C-19.774 -10.7538 -19.1955 -10.8571 -18.4309 -11.0638C-19.1955 -9.92731 -20.0013 -8.97684 -20.9105 -8.27431C-21.7783 -7.53046 -22.5635 -7.1792 -23.2247 -7.1792C-23.6586 -7.1792 -24.0305 -7.36516 -24.3404 -7.69576C-24.6504 -8.06769 -24.8157 -8.48094 -24.8157 -8.97684C-24.8157 -10.1959 -24.4437 -11.539 -23.6999 -12.944C-22.956 -14.3904 -22.0676 -15.5682 -20.9931 -16.5187C-19.96 -17.4691 -18.9888 -17.9444 -18.121 -17.9444ZM-18.121 -17.9444M-14.877 -5.05096M-7.16987 -14.6797C-7.68644 -15.2996 -8.26499 -15.6095 -8.88486 -15.6095C-9.73203 -15.6095 -10.6412 -15.1343 -11.6123 -14.1838C-12.5835 -13.2333 -13.3686 -12.1589 -13.9678 -10.9191C-14.5671 -9.72069 -14.877 -8.68756 -14.877 -7.86106C-14.877 -7.28251 -14.5671 -6.72462 -13.9472 -6.16674C-13.348 -5.62951 -12.7281 -5.3609 -12.0876 -5.3609C-11.0338 -5.3609 -9.89733 -6.14607 -8.67824 -7.69576C-8.65758 -7.0139 -8.55426 -6.45601 -8.40963 -6.00144C-8.24433 -5.58818 -8.0377 -5.3609 -7.78975 -5.3609C-7.60379 -5.3609 -7.47981 -5.5262 -7.41782 -5.87746C-7.3765 -6.04276 -7.33517 -6.20806 -7.31451 -6.37336C-7.29385 -6.55932 -7.25252 -6.78661 -7.2112 -7.07589C-7.19054 -7.36516 -7.08722 -7.98504 -6.92192 -8.91485C-6.73596 -9.84466 -6.65331 -10.5059 -6.65331 -10.8985C-6.65331 -11.0431 -6.73596 -11.2291 -6.90126 -11.4357C-6.55 -11.9522 -6.3847 -12.4688 -6.3847 -12.9854C-6.3847 -13.4813 -6.65331 -14.0392 -7.16987 -14.6797ZM-7.16987 -14.6797M-7.93439 -11.9729L-7.93439 -11.9522C-8.12035 -11.9109 -8.24433 -11.7869 -8.28565 -11.5803C-8.59559 -10.3199 -9.17414 -9.26611 -9.97998 -8.39829C-10.7858 -7.5098 -11.5297 -7.07589 -12.1702 -7.07589C-12.4388 -7.07589 -12.6661 -7.15854 -12.8521 -7.28251C-13.038 -7.44781 -13.1413 -7.63377 -13.1413 -7.86106C-13.1413 -8.41895 -12.8934 -9.18346 -12.3975 -10.1546C-11.9016 -11.1257 -11.3024 -11.9936 -10.5792 -12.7374C-9.856 -13.5226 -9.23613 -13.8945 -8.6989 -13.8945C-8.18234 -13.8945 -7.93439 -13.254 -7.93439 -11.9729ZM-7.93439 -11.9729M-4.64905 -5.05096M-3.45062 -13.0887C-3.45062 -11.4563 -3.7399 -9.76201 -4.29778 -8.02636C-4.52507 -7.26185 -4.64905 -6.76595 -4.64905 -6.49734C-4.64905 -6.24939 -4.58706 -6.00144 -4.42176 -5.71216C-4.29778 -5.46421 -4.09116 -5.31957 -3.86387 -5.31957C-3.5746 -5.31957 -3.32665 -5.58818 -3.09936 -6.14607C-2.97538 -6.45601 -2.87207 -6.76595 -2.76876 -7.07589C-2.66544 -7.38582 -2.52081 -7.8404 -2.35551 -8.39829C-2.14888 -8.95618 -1.90093 -9.6587 -1.59099 -10.4852C-1.28106 -11.3117 -0.867805 -12.0556 -0.371905 -12.6961C0.144658 -13.3573 0.764534 -13.8532 1.48772 -14.1631C1.81832 -14.3491 2.06627 -14.4937 2.21091 -14.6384C2.35555 -14.783 2.4382 -14.9276 2.4382 -15.0929C2.4382 -15.4235 2.1076 -15.5888 1.42573 -15.5888C0.351283 -15.5888 -0.785155 -14.6797 -1.98358 -12.8614C-1.96292 -13.0887 -1.94226 -13.4399 -1.94226 -13.8945C-1.94226 -14.3698 -2.06623 -14.7623 -2.31418 -15.0929C-2.54147 -15.4442 -2.78942 -15.6095 -3.05803 -15.6095C-3.36797 -15.6095 -3.51261 -15.2789 -3.51261 -14.6384ZM-3.51261 -14.6384M1.65302 -5.05096M9.36014 -14.6797C8.84358 -15.2996 8.26503 -15.6095 7.64515 -15.6095C6.79799 -15.6095 5.88884 -15.1343 4.9177 -14.1838C3.94656 -13.2333 3.16139 -12.1589 2.56217 -10.9191C1.96296 -9.72069 1.65302 -8.68756 1.65302 -7.86106C1.65302 -7.28251 1.96296 -6.72462 2.58284 -6.16674C3.18205 -5.62951 3.80192 -5.3609 4.44246 -5.3609C5.49625 -5.3609 6.63269 -6.14607 7.85178 -7.69576C7.87244 -7.0139 7.97575 -6.45601 8.12039 -6.00144C8.28569 -5.58818 8.49232 -5.3609 8.74027 -5.3609C8.92623 -5.3609 9.0502 -5.5262 9.11219 -5.87746C9.15352 -6.04276 9.19484 -6.20806 9.2155 -6.37336C9.23617 -6.55932 9.27749 -6.78661 9.31882 -7.07589C9.33948 -7.36516 9.44279 -7.98504 9.60809 -8.91485C9.79406 -9.84466 9.87671 -10.5059 9.87671 -10.8985C9.87671 -11.0431 9.79406 -11.2291 9.62876 -11.4357C9.98002 -11.9522 10.1453 -12.4688 10.1453 -12.9854C10.1453 -13.4813 9.87671 -14.0392 9.36014 -14.6797ZM9.36014 -14.6797M8.59563 -11.9729L8.59563 -11.9522C8.40967 -11.9109 8.28569 -11.7869 8.24437 -11.5803C7.93443 -10.3199 7.35588 -9.26611 6.55004 -8.39829C5.7442 -7.5098 5.00035 -7.07589 4.35981 -7.07589C4.0912 -7.07589 3.86391 -7.15854 3.67795 -7.28251C3.49199 -7.44781 3.38867 -7.63377 3.38867 -7.86106C3.38867 -8.41895 3.63662 -9.18346 4.13252 -10.1546C4.62843 -11.1257 5.22764 -11.9936 5.95083 -12.7374C6.67401 -13.5226 7.29389 -13.8945 7.83112 -13.8945C8.34768 -13.8945 8.59563 -13.254 8.59563 -11.9729ZM8.59563 -11.9729M11.6537 -5.05096M25.2083 -15.6095C23.8859 -15.6095 22.4189 -14.0392 20.7865 -10.8778C20.9518 -11.725 21.0345 -12.4481 21.0345 -13.0267C21.0345 -13.6052 20.8072 -14.1838 20.3319 -14.7623C19.8774 -15.3202 19.4848 -15.6095 19.1542 -15.6095C18.5963 -15.6095 18.0591 -15.3202 17.5218 -14.721C17.2326 -14.3904 16.8813 -13.9565 16.4887 -13.4193C16.0961 -12.8821 15.125 -11.1671 13.5753 -8.27431C14.4844 -11.0638 14.939 -13.0474 14.939 -14.2664C14.939 -14.5764 14.7944 -14.907 14.5051 -15.2169C14.1952 -15.5269 13.9059 -15.6922 13.596 -15.6922C13.41 -15.6922 13.286 -15.4649 13.2447 -14.969C13.2034 -14.5144 13.1414 -13.7499 13.0587 -12.7374C12.9554 -11.7043 12.8314 -10.8985 12.6455 -10.2992C12.4802 -9.72069 12.3355 -9.22479 12.1909 -8.77021C12.0669 -8.35696 11.9843 -8.02636 11.9016 -7.79907C11.8603 -7.57179 11.7983 -7.3445 11.7363 -7.11721C11.6743 -6.88992 11.6537 -6.6833 11.6537 -6.53866C11.6537 -6.37336 11.7983 -6.12541 12.0669 -5.83614C12.3355 -5.50553 12.5628 -5.3609 12.7281 -5.3609C12.9141 -5.3609 13.1827 -5.60885 13.5546 -6.12541C13.7406 -6.39402 13.8852 -6.62131 14.0505 -6.8486C14.1745 -7.07589 14.3811 -7.38582 14.6497 -7.77841C14.9184 -8.19166 15.1456 -8.56359 15.3316 -8.85286C15.5382 -9.18346 15.8275 -9.63804 16.2408 -10.2992C16.6127 -10.9191 16.9226 -11.3944 17.1086 -11.7043C17.2946 -12.0142 17.5218 -12.3242 17.7698 -12.6548C18.0177 -13.006 18.2244 -13.2333 18.3897 -13.3573C18.555 -13.5019 18.7203 -13.5639 18.8649 -13.5639C19.0095 -13.5639 19.1542 -13.4606 19.2782 -13.2746C19.4021 -13.068 19.4641 -12.8201 19.4641 -12.5308C19.4641 -10.9811 19.1129 -9.3281 18.3897 -7.53046C18.1417 -6.93125 18.0177 -6.518 18.0177 -6.33204C18.0177 -6.14607 18.1211 -5.93945 18.3277 -5.71216C18.5343 -5.48487 18.7203 -5.38156 18.8856 -5.38156C19.0715 -5.38156 19.2782 -5.54686 19.5054 -5.91879C19.7327 -6.24939 20.0013 -6.74529 20.3319 -7.36516C20.6212 -7.98504 20.8278 -8.35696 20.9105 -8.48094C20.9725 -8.60491 21.0345 -8.72889 21.1171 -8.8322C21.1584 -8.93551 21.2204 -9.01816 21.2618 -9.10081C21.3031 -9.14214 21.5717 -9.61738 22.0883 -10.4645C22.6048 -11.3117 23.0801 -12.0556 23.514 -12.6548C23.9685 -13.254 24.3611 -13.5639 24.7124 -13.5639C24.981 -13.5639 25.1256 -13.13 25.1256 -12.2415C25.1256 -11.3737 24.8777 -10.1959 24.4231 -8.72889C23.9272 -7.24119 23.6999 -6.31137 23.6999 -5.91879C23.6999 -5.54686 23.8446 -5.3609 24.1338 -5.3609C24.5471 -5.3609 24.9603 -5.83614 25.3943 -6.80727C25.8282 -7.77841 26.1588 -8.8322 26.4067 -9.9893C26.6753 -11.1464 26.7993 -12.0762 26.7993 -12.8201C26.7993 -13.5226 26.634 -14.1838 26.3241 -14.7623C25.9935 -15.3202 25.6215 -15.6095 25.2083 -15.6095ZM25.2083 -15.6095" fill="#000"/>
     <path d="M-28.4626 19.8556M-25.6938 5.14393C-25.7765 5.24724 -25.7971 5.41254 -25.7971 5.63983C-25.7971 6.52831 -26.231 8.69788 -27.1402 12.1692C-28.008 15.6405 -28.4626 17.5414 -28.4626 17.872C-28.4626 18.2026 -28.3386 18.5539 -28.0907 18.9052C-27.8427 19.2564 -27.6361 19.4424 -27.4708 19.4424C-27.4088 19.4424 -27.3261 19.3184 -27.2228 19.0911C-27.1608 18.9672 -27.1195 18.8432 -27.0575 18.6985C-27.0162 18.5539 -26.9542 18.3679 -26.8922 18.1613C-26.8302 17.9134 -26.7683 17.7067 -26.6856 17.5208C-26.6443 17.3348 -26.5616 17.0869 -26.479 16.7976C-26.3963 16.4876 -26.3137 16.2397 -26.2724 16.0124C-26.1897 15.7851 -26.1277 15.5165 -26.0244 15.1859C-25.9418 14.8346 -25.7558 14.1528 -25.4872 13.1197C-25.1979 12.1072 -24.9293 10.8674 -24.702 9.42107C-23.8548 12.0865 -23.1936 13.7809 -22.6977 14.504C-22.3671 14.938 -22.0159 15.1446 -21.644 15.1446C-21.2514 15.1446 -20.7761 14.8346 -20.1976 14.2148C-19.5984 13.5949 -18.0487 11.6939 -15.5072 8.53258C-16.0651 10.0409 -16.561 11.7766 -17.0569 13.7809C-17.5114 15.7851 -17.7594 17.0455 -17.7594 17.6241C-17.7594 18.1613 -17.6767 18.6159 -17.4908 18.9465C-17.3048 19.2771 -17.1395 19.4424 -16.9329 19.4424C-16.7676 19.4424 -16.561 19.0498 -16.3543 18.244C-16.251 17.8307 -16.1477 17.4175 -16.0237 16.9629C-15.9411 16.5496 -15.7965 15.9711 -15.6312 15.3099C-15.4659 14.6074 -15.3212 14.0288 -15.1972 13.5742C-15.0733 13.0783 -14.8873 12.4585 -14.66 11.6526C-14.4327 10.8468 -14.2468 10.2682 -14.1641 9.89631C-14.0401 9.50372 -13.9368 9.0698 -13.7922 8.53258C-13.6682 8.03668 -13.5856 7.60277 -13.5236 7.29283C-13.4616 6.98289 -13.4409 6.69361 -13.4409 6.44566C-13.4409 6.19771 -13.5856 5.9291 -13.8542 5.66049C-14.1228 5.39188 -14.3914 5.24724 -14.6394 5.24724C-14.8873 5.24724 -15.3006 5.55718 -15.8584 6.19771C-16.4163 6.83825 -17.2842 7.9127 -18.4619 9.40041C-19.6397 10.9294 -20.6108 12.1279 -21.3753 13.037C-21.9746 11.7353 -22.5118 10.4749 -22.987 9.19378C-23.4623 7.95403 -23.7102 7.06554 -23.7722 6.56964C-23.7929 6.28036 -24.0201 5.94976 -24.4541 5.57784C-24.888 5.20591 -25.1772 5.01995 -25.3632 5.01995C-25.5285 5.01995 -25.6525 5.06128 -25.6938 5.14393ZM-25.6938 5.14393M-13.1723 19.8556M-5.4652 10.2269C-5.98176 9.60703 -6.56031 9.29709 -7.18019 9.29709C-8.02735 9.29709 -8.9365 9.77233 -9.90764 10.7228C-10.8788 11.6733 -11.664 12.7477 -12.2632 13.9875C-12.8624 15.1859 -13.1723 16.219 -13.1723 17.0455C-13.1723 17.6241 -12.8624 18.182 -12.2425 18.7399C-11.6433 19.2771 -11.0234 19.5457 -10.3829 19.5457C-9.32909 19.5457 -8.19265 18.7605 -6.97356 17.2108C-6.9529 17.8927 -6.84959 18.4506 -6.70495 18.9052C-6.53965 19.3184 -6.33302 19.5457 -6.08507 19.5457C-5.89911 19.5457 -5.77514 19.3804 -5.71315 19.0291C-5.67182 18.8638 -5.6305 18.6985 -5.60984 18.5332C-5.58917 18.3473 -5.54785 18.12 -5.50652 17.8307C-5.48586 17.5414 -5.38255 16.9216 -5.21725 15.9917C-5.03128 15.0619 -4.94863 14.4007 -4.94863 14.0081C-4.94863 13.8635 -5.03128 13.6775 -5.19658 13.4709C-4.84532 12.9544 -4.68002 12.4378 -4.68002 11.9212C-4.68002 11.4253 -4.94863 10.8674 -5.4652 10.2269ZM-5.4652 10.2269M-6.22971 12.9337L-6.22971 12.9544C-6.41567 12.9957 -6.53965 13.1197 -6.58097 13.3263C-6.89091 14.5867 -7.46946 15.6405 -8.2753 16.5083C-9.08114 17.3968 -9.82499 17.8307 -10.4655 17.8307C-10.7341 17.8307 -10.9614 17.7481 -11.1474 17.6241C-11.3334 17.4588 -11.4367 17.2728 -11.4367 17.0455C-11.4367 16.4876 -11.1887 15.7231 -10.6928 14.752C-10.1969 13.7809 -9.5977 12.913 -8.87451 12.1692C-8.15133 11.384 -7.53145 11.0121 -6.99422 11.0121C-6.47766 11.0121 -6.22971 11.6526 -6.22971 12.9337ZM-6.22971 12.9337M-3.50226 19.8556M2.92379 9.29709C2.15927 9.29709 1.2088 9.68968 0.0516954 10.4749C-1.08474 11.2807 -1.66329 12.0452 -1.66329 12.7684C-1.66329 13.1816 -1.45667 13.5949 -1.06408 13.9875C-0.671493 14.3801 -0.23758 14.7313 0.258321 14.9999C0.712896 15.2686 1.16747 15.5992 1.56006 15.9298C1.95265 16.3017 2.15927 16.6323 2.15927 16.9216C2.15927 17.2522 1.97331 17.5001 1.62205 17.6654C1.27078 17.872 0.671571 17.9547 -0.113605 17.9547C-0.940106 17.9547 -1.70462 17.6861 -2.44847 17.1489C-2.69642 16.9629 -2.88238 16.8802 -3.02702 16.8802C-3.17166 16.8802 -3.27497 16.9216 -3.37828 17.0455C-3.46093 17.1282 -3.50226 17.2728 -3.50226 17.4588C-3.50226 17.8927 -3.13033 18.3473 -2.34516 18.8225C-1.60131 19.2978 -0.712818 19.5457 0.299646 19.5457C1.29145 19.5457 2.15927 19.2771 2.90312 18.7812C3.66764 18.244 4.03956 17.7274 4.03956 17.1695C4.03956 16.6323 3.8536 16.1364 3.44035 15.6405C3.06842 15.1859 2.61385 14.7933 2.13861 14.4834C0.878196 13.7189 0.237658 13.161 0.237658 12.851C0.237658 12.4171 0.588921 12.0245 1.29145 11.632C2.01463 11.2394 2.5312 11.0534 2.8618 11.0534C3.1924 11.0534 3.523 11.1774 3.83294 11.4253C4.14287 11.6526 4.39082 11.7766 4.53546 11.7766C4.76275 11.7766 4.86606 11.6526 4.86606 11.4253C4.86606 11.0327 4.65944 10.5988 4.24619 10.0616C3.83294 9.56571 3.39902 9.29709 2.92379 9.29709ZM2.92379 9.29709M5.32064 19.8556M13.0278 10.2269C12.5112 9.60703 11.9326 9.29709 11.3128 9.29709C10.4656 9.29709 9.55646 9.77233 8.58532 10.7228C7.61418 11.6733 6.829 12.7477 6.22979 13.9875C5.63058 15.1859 5.32064 16.219 5.32064 17.0455C5.32064 17.6241 5.63058 18.182 6.25045 18.7399C6.84966 19.2771 7.46954 19.5457 8.11008 19.5457C9.16387 19.5457 10.3003 18.7605 11.5194 17.2108C11.5401 17.8927 11.6434 18.4506 11.788 18.9052C11.9533 19.3184 12.1599 19.5457 12.4079 19.5457C12.5938 19.5457 12.7178 19.3804 12.7798 19.0291C12.8211 18.8638 12.8625 18.6985 12.8831 18.5332C12.9038 18.3473 12.9451 18.12 12.9864 17.8307C13.0071 17.5414 13.1104 16.9216 13.2757 15.9917C13.4617 15.0619 13.5443 14.4007 13.5443 14.0081C13.5443 13.8635 13.4617 13.6775 13.2964 13.4709C13.6476 12.9544 13.8129 12.4378 13.8129 11.9212C13.8129 11.4253 13.5443 10.8674 13.0278 10.2269ZM13.0278 10.2269M12.2632 12.9337L12.2632 12.9544C12.0773 12.9957 11.9533 13.1197 11.912 13.3263C11.602 14.5867 11.0235 15.6405 10.2177 16.5083C9.41182 17.3968 8.66797 17.8307 8.02743 17.8307C7.75882 17.8307 7.53153 17.7481 7.34557 17.6241C7.1596 17.4588 7.05629 17.2728 7.05629 17.0455C7.05629 16.4876 7.30424 15.7231 7.80014 14.752C8.29604 13.7809 8.89525 12.913 9.61844 12.1692C10.3416 11.384 10.9615 11.0121 11.4987 11.0121C12.0153 11.0121 12.2632 11.6526 12.2632 12.9337ZM12.2632 12.9337M15.4659 19.8556M19.5778 5.24724C19.5778 4.87531 19.4125 4.48273 19.0819 4.1108C18.7306 3.69755 18.4827 3.51159 18.2967 3.51159C18.1107 3.51159 18.0074 3.55291 17.9454 3.63556C17.8835 3.71821 17.8628 3.86285 17.8628 4.04881C17.8628 5.84645 17.6562 7.87138 17.2636 10.1443C16.871 12.3758 16.4577 14.2768 16.0651 15.8264C15.6726 17.3761 15.4659 18.2233 15.4659 18.3886C15.4659 18.5539 15.5899 18.7812 15.8585 19.0911C16.1065 19.4011 16.3338 19.5457 16.5197 19.5457C16.7883 19.5457 17.2842 18.1407 17.9661 15.3305C19.0406 11.198 19.5778 7.83005 19.5778 5.24724ZM19.5778 5.24724M20.0737 19.8556M27.7808 10.2269C27.2642 9.60703 26.6857 9.29709 26.0658 9.29709C25.2186 9.29709 24.3095 9.77233 23.3384 10.7228C22.3672 11.6733 21.582 12.7477 20.9828 13.9875C20.3836 15.1859 20.0737 16.219 20.0737 17.0455C20.0737 17.6241 20.3836 18.182 21.0035 18.7399C21.6027 19.2771 22.2226 19.5457 22.8631 19.5457C23.9169 19.5457 25.0533 18.7605 26.2724 17.2108C26.2931 17.8927 26.3964 18.4506 26.541 18.9052C26.7063 19.3184 26.913 19.5457 27.1609 19.5457C27.3469 19.5457 27.4709 19.3804 27.5328 19.0291C27.5742 18.8638 27.6155 18.6985 27.6362 18.5332C27.6568 18.3473 27.6981 18.12 27.7395 17.8307C27.7601 17.5414 27.8634 16.9216 28.0287 15.9917C28.2147 15.0619 28.2974 14.4007 28.2974 14.0081C28.2974 13.8635 28.2147 13.6775 28.0494 13.4709C28.4007 12.9544 28.566 12.4378 28.566 11.9212C28.566 11.4253 28.2974 10.8674 27.7808 10.2269ZM27.7808 10.2269M27.0163 12.9337L27.0163 12.9544C26.8303 12.9957 26.7063 13.1197 26.665 13.3263C26.3551 14.5867 25.7765 15.6405 24.9707 16.5083C24.1649 17.3968 23.421 17.8307 22.7805 17.8307C22.5119 17.8307 22.2846 17.7481 22.0986 17.6241C21.9126 17.4588 21.8093 17.2728 21.8093 17.0455C21.8093 16.4876 22.0573 15.7231 22.5532 14.752C23.0491 13.7809 23.6483 12.913 24.3715 12.1692C25.0947 11.384 25.7145 11.0121 26.2518 11.0121C26.7683 11.0121 27.0163 11.6526 27.0163 12.9337ZM27.0163 12.9337" fill="#000"/>
    </g>
   </g>
   <g>
    <path stroke="#f00" d="M47.2157 -5.4L79.5043 -5.4L92.9282 -10.9603L115.76 -33.7918L121.32 -47.2157L121.32 -79.5043L115.76 -92.9282L92.9282 -115.76L79.5043 -121.32L47.2157 -121.32L33.7918 -115.76L10.9603 -92.9282L5.4 -79.5043L5.4 -47.2157L10.9603 -33.7918L33.7918 -10.9603L47.2157 -5.4"/>
   </g>
   <g>
    <path d="M47.2157 -5.4L79.5043 -5.4L92.9282 -10.9603L115.76 -33.7918L121.32 -47.2157L121.32 -79.5043L115.76 -92.9282L92.9282 -115.76L79.5043 -121.32L47.2157 -121.32L33.7918 -115.76L10.9603 -92.9282L5.4 -79.5043L5.4 -47.2157L10.9603 -33.7918L33.7918 -10.9603L47.2157 -5.4M63.36 -16.992L63.36 -16.992A46.368 46.368 0 0 1 63.36 -109.728A46.368 46.368 0 0 1 63.36 -16.992" fill="#000"/>
   </g>
   <g transform="matrix(1.000000,0.000000,0.000000,1.000000,190.080000,-63.360000)"/>
   <g>
    <path stroke="#f00" d="M173.936 -5.4L206.224 -5.4L219.648 -10.9603L242.48 -33.7918L248.04 -47.2157L248.04 -79.5043L242.48 -92.9282L219.648 -115.76L206.224 -121.32L173.936 -121.32L160.512 -115.76L137.68 -92.9282L132.12 -79.5043L132.12 -47.2157L137.68 -33.7918L160.512 -10.9603L173.936 -5.4"/>
   </g>
   <g>
    <path d="M173.936 -5.4L206.224 -5.4L219.648 -10.9603L242.48 -33.7918L248.04 -47.2157L248.04 -79.5043L242.48 -92.9282L219.648 -115.76L206.224 -121.32L173.936 -121.32L160.512 -115.76L137.68 -92.9282L132.12 -79.5043L132.12 -47.2157L137.68 -33.7918L160.512 -10.9603L173.936 -5.4M190.08 -16.992L190.08 -16.992A46.368 46.368 0 0 1 190.08 -109.728A46.368 46.368 0 0 1 190.08 -16.992" fill="#000"/>
   </g>
   <g transform="matrix(1.000000,0.000000,0.000000,1.000000,316.800000,-63.360000)"/>
   <g>
    <path stroke="#f00" d="M300.656 -5.4L332.944 -5.4L346.368 -10.9603L369.2 -33.7918L374.76 -47.2157L374.76 -79.5043L369.2 -92.9282L346.368 -115.76L332.944 -121.32L300.656 -121.32L287.232 -115.76L264.4 -92.9282L258.84 -79.5043L258.84 -47.2157L264.4 -33.7918L287.232 -10.9603L300.656 -5.4"/>
   </g>
   <g>
    <path d="M300.656 -5.4L332.944 -5.4L346.368 -10.9603L369.2 -33.7918L374.76 -47.2157L374.76 -79.5043L369.2 -92.9282L346.368 -115.76L332.944 -121.32L300.656 -121.32L287.232 -115.76L264.4 -92.9282L258.84 -79.5043L258.84 -47.2157L264.4 -33.7918L287.232 -10.9603L300.656 -5.4M316.8 -16.992L316.8 -16.992A46.368 46.368 0 0 1 316.8 -109.728A46.368 46.368 0 0 1 316.8 -16.992" fill="#000"/>
   </g>
   <g transform="matrix(1.000000,0.000000,0.000000,1.000000,443.520000,-63.360000)"/>
   <g>
    <path stroke="#f00" d="M427.376 -5.4L459.664 -5.4L473.088 -10.9603L495.92 -33.7918L501.48 -47.2157L501.48 -79.5043L495.92 -92.9282L473.088 -115.76L459.664 -121.32L427.376 -121.32L413.952 -115.76L391.12 -92.9282L385.56 -79.5043L385.56 -47.2157L391.12 -33.7918L413.952 -10.9603L427.376 -5.4"/>
   </g>
   <g>
    <path d="M427.376 -5.4L459.664 -5.4L473.088 -10.9603L495.92 -33.7918L501.48 -47.2157L501.48 -79.5043L495.92 -92.9282L473.088 -115.76L459.664 -121.32L427.376 -121.32L413.952 -115.76L391.12 -92.9282L385.56 -79.5043L385.56 -47.2157L391.12 -33.7918L413.952 -10.9603L427.376 -5.4M443.52 -16.992L443.52 -16.992A46.368 46.368 0 0 1 443.52 -109.728A46.368 46.368 0 0 1 443.52 -16.992" fill="#000"/>
   </g>
   <g transform="matrix(1.000000,0.000000,0.000000,1.000000,570.240000,-63.360000)"/>
   <g>
    <path stroke="#f00" d="M554.096 -5.4L586.384 -5.4L599.808 -10.9603L622.64 -33.7918L628.2 -47.2157L628.2 -79.5043L622.64 -92.9282L599.808 -115.76L586.384 -121.32L554.096 -121.32L540.672 -115.76L517.84 -92.9282L512.28 -79.5043L512.28 -47.2157L517.84 -33.7918L540.672 -10.9603L554.096 -5.4"/>
   </g>
   <g>
    <path d="M554.096 -5.4L586.384 -5.4L599.808 -10.9603L622.64 -33.7918L628.2 -47.2157L628.2 -79.5043L622.64 -92.9282L599.808 -115.76L586.384 -121.32L554.096 -121.32L540.672 -115.76L517.84 -92.9282L512.28 -79.5043L512.28 -47.2157L517.84 -33.7918L540.672 -10.9603L554.096 -5.4M570.24 -16.992L570.24 -16.992A46.368 46.368 0 0 1 570.24 -109.728A46.368 46.368 0 0 1 570.24 -16.992" fill="#000"/>
   </g>
   <g transform="matrix(1.000000,0.000000,0.000000,1.000000,696.960000,-63.360000)"/>
   <g>
    <path stroke="#f00" d="M680.816 -5.4L713.104 -5.4L726.528 -10.9603L749.36 -33.7918L754.92 -47.2157L754.92 -79.5043L749.36 -92.9282L726.528 -115.76L713.104 -121.32L680.816 -121.32L667.392 -115.76L644.56 -92.9282L639 -79.5043L639 -47.2157L644.56 -33.7918L667.392 -10.9603L680.816 -5.4"/>
   </g>
   <g>
    <path d="M680.816 -5.4L713.104 -5.4L726.528 -10.9603L749.36 -33.7918L754.92 -47.2157L754.92 -79.5043L749.36 -92.9282L726.528 -115.76L713.104 -121.32L680.816 -121.32L667.392 -115.76L644.56 -92.9282L639 -79.5043L639 -47.2157L644.56 -33.7918L667.392 -10.9603L680.816 -5.4M696.96 -16.992L696.96 -16.992A46.368 46.368 0 0 1 696.96 -109.728A46.368 46.368 0 0 1 696.96 -16.992" fill="#000"/>
   </g>
   <g transform="matrix(1.000000,0.000000,0.000000,1.000000,823.680000,-63.360000)"/>
   <g>
    <path stroke="#f00" d="M807.536 -5.4L839.824 -5.4L853.248 -10.9603L876.08 -33.7918L881.64 -47.2157L881.64 -79.5043L876.08 -92.9282L853.248 -115.76L839.824 -121.32L807.536 -121.32L794.112 -115.76L771.28 -92.9282L765.72 -79.5043L765.72 -47.2157L771.28 -33.7918L794.112 -10.9603L807.536 -5.4"/>
   </g>
   <g>
    <path d="M807.536 -5.4L839.824 -5.4L853.248 -10.9603L876.08 -33.7918L881.64 -47.2157L881.64 -79.5043L876.08 -92.9282L853.248 -115.76L839.824 -121.32L807.536 -121.32L794.112 -115.76L771.28 -92.9282L765.72 -79.5043L765.72 -47.2157L771.28 -33.7918L794.112 -10.9603L807.536 -5.4M823.68 -16.992L823.68 -16.992A46.368 46.368 0 0 1 823.68 -109.728A46.368 46.368 0 0 1 823.68 -16.992" fill="#000"/>
   </g>
   <g transform="matrix(1.000000,0.000000,0.000000,1.000000,950.400000,-63.360000)"/>
   <g>
    <path stroke="#f00" d="M934.256 -5.4L966.544 -5.4L979.968 -10.9603L1002.8 -33.7918L1008.36 -47.2157L1008.36 -79.5043L1002.8 -92.9282L979.968 -115.76L966.544 -121.32L934.256 -121.32L920.832 -115.76L898 -92.9282L892.44 -79.5043L892.44 -47.2157L898 -33.7918L920.832 -10.9603L934.256 -5.4"/>
   </g>
   <g>
    <path d="M934.256 -5.4L966.544 -5.4L979.968 -10.9603L1002.8 -33.7918L1008.36 -47.2157L1008.36 -79.5043L1002.8 -92.9282L979.968 -115.76L966.544 -121.32L934.256 -121.32L920.832 -115.76L898 -92.9282L892.44 -79.5043L892.44 -47.2157L898 -33.7918L920.832 -10.9603L934.256 -5.4M950.4 -16.992L950.4 -16.992A46.368 46.368 0 0 1 950.4 -109.728A46.368 46.368 0 0 1 950.4 -16.992" fill="#000"/>
   </g>
   <g transform="matrix(1.000000,0.000000,0.000000,1.000000,1077.120000,-63.360000)"/>
   <g>
    <path stroke="#f00" d="M1060.98 -5.4L1093.26 -5.4L1106.69 -10.9603L1129.52 -33.7918L1135.08 -47.2157L1135.08 -79.5043L1129.52 -92.9282L1106.69 -115.76L1093.26 -121.32L1060.98 -121.32L1047.55 -115.76L1024.72 -92.9282L1019.16 -79.5043L1019.16 -47.2157L1024.72 -33.7918L1047.55 -10.9603L1060.98 -5.4"/>
   </g>
   <g>
    <path d="M1060.98 -5.4L1093.26 -5.4L1106.69 -10.9603L1129.52 -33.7918L1135.08 -47.2157L1135.08 -79.5043L1129.52 -92.9282L1106.69 -115.76L1093.26 -121.32L1060.98 -121.32L1047.55 -115.76L1024.72 -92.9282L1019.16 -79.5043L1019.16 -47.2157L1024.72 -33.7918L1047.55 -10.9603L1060.98 -5.4M1077.12 -16.992L1077.12 -16.992A46.368 46.368 0 0 1 1077.12 -109.728A46.368 46.368 0 0 1 1077.12 -16.992" fill="#000"/>
   </g>
   <g transform="matrix(1.000000,0.000000,0.000000,1.000000,1203.840000,-63.360000)"/>
   <g>
    <path stroke="#f00" d="M1187.7 -5.4L1219.98 -5.4L1233.41 -10.9603L1256.24 -33.7918L1261.8 -47.2157L1261.8 -79.5043L1256.24 -92.9282L1233.41 -115.76L1219.98 -121.32L1187.7 -121.32L1174.27 -115.76L1151.44 -92.9282L1145.88 -79.5043L1145.88 -47.2157L1151.44 -33.7918L1174.27 -10.9603L1187.7 -5.4"/>
   </g>
   <g>
    <path d="M1187.7 -5.4L1219.98 -5.4L1233.41 -10.9603L1256.24 -33.7918L1261.8 -47.2157L1261.8 -79.5043L1256.24 -92.9282L1233.41 -115.76L1219.98 -121.32L1187.7 -121.32L1174.27 -115.76L1151.44 -92.9282L1145.88 -79.5043L1145.88 -47.2157L1151.44 -33.7918L1174.27 -10.9603L1187.7 -5.4M1203.84 -16.992L1203.84 -16.992A46.368 46.368 0 0 1 1203.84 -109.728A46.368 46.368 0 0 1 1203.84 -16.992" fill="#000"/>
   </g>
   <g transform="matrix(1.000000,0.000000,0.000000,1.000000,63.360000,-190.080000)"/>
   <g>
    <path stroke="#f00" d="M47.2157 -132.12L79.5043 -132.12L92.9282 -137.68L115.76 -160.512L121.32 -173.936L121.32 -206.224L115.76 -219.648L92.9282 -242.48L79.5043 -248.04L47.2157 -248.04L33.7918 -242.48L10.9603 -219.648L5.4 -206.224L5.4 -173.936L10.9603 -160.512L33.7918 -137.68L47.2157 -132.12"/>
   </g>
   <g>
    <path d="M47.2157 -132.12L79.5043 -132.12L92.9282 -137.68L115.76 -160.512L121.32 -173.936L121.32 -206.224L115.76 -219.648L92.9282 -242.48L79.5043 -248.04L47.2157 -248.04L33.7918 -242.48L10.9603 -219.648L5.4 -206.224L5.4 -173.936L10.9603 -160.512L33.7918 -137.68L47.2157 -132.12M63.36 -143.712L63.36 -143.712A46.368 46.368 0 0 1 63.36 -236.448A46.368 46.368 0 0 1 63.36 -143.712" fill="#000"/>
   </g>
   <g transform="matrix(1.000000,0.000000,0.000000,1.000000,190.080000,-190.080000)"/>
   <g>
    <path stroke="#f00" d="M173.936 -132.12L206.224 -132.12L219.648 -137.68L242.48 -160.512L248.04 -173.936L248.04 -206.224L242.48 -219.648L219.648 -242.48L206.224 -248.04L173.936 -248.04L160.512 -242.48L137.68 -219.648L132.12 -206.224L132.12 -173.936L137.68 -160.512L160.512 -137.68L173.936 -132.12"/>
   </g>
   <g>
    <path d="M173.936 -132.12L206.224 -132.12L219.648 -137.68L242.48 -160.512L248.04 -173.936L248.04 -206.224L242.48 -219.648L219.648 -242.48L206.224 -248.04L173.936 -248.04L160.512 -242.48L137.68 -219.648L132.12 -206.224L132.12 -173.936L137.68 -160.512L160.512 -137.68L173.936 -132.12M190.08 -143.712L190.08 -143.712A46.368 46.368 0 0 1 190.08 -236.448A46.368 46.368 0 0 1 190.08 -143.712" fill="#000"/>
   </g>
   <g transform="matrix(1.000000,0.000000,0.000000,1.000000,316.800000,-190.080000)"/>
   <g>
    <path stroke="#f00" d="M300.656 -132.12L332.944 -132.12L346.368 -137.68L369.2 -160.512L374.76 -173.936L374.76 -206.224L369.2 -219.648L346.368 -242.48L332.944 -248.04L300.656 -248.04L287.232 -242.48L264.4 -219.648L258.84 -206.224L258.84 -173.936L264.4 -160.512L287.232 -137.68L300.656 -132.12"/>
   </g>
   <g>
    <path d="M300.656 -132.12L332.944 -132.12L346.368 -137.68L369.2 -160.512L374.76 -173.936L374.76 -206.224L369.2 -219.648L346.368 -242.48L332.944 -248.04L300.656 -248.04L287.232 -242.48L264.4 -219.648L258.84 -206.224L258.84 -173.936L264.4 -160.512L287.232 -137.68L300.656 -132.12M316.8 -143.712L316.8 -143.712A46.368 46.368 0 0 1 316.8 -236.448A46.368 46.368 0 0 1 316.8 -143.712" fill="#000"/>
   </g>
   <g transform="matrix(1.000000,0.000000,0.000000,1.000000,443.520000,-190.080000)"/>
   <g>
    <path stroke="#f00" d="M427.376 -132.12L459.664 -132.12L473.088 -137.68L495.92 -160.512L501.48 -173.936L501.48 -206.224L495.92 -219.648L473.088 -242.48L459.664 -248.04L427.376 -248.04L413.952 -242.48L391.12 -219.648L385.56 -206.224L385.56 -173.936L391.12 -160.512L413.952 -137.68L427.376 -132.12"/>
   </g>
   <g>
    <path d="M427.376 -132.12L459.664 -132.12L473.088 -137.68L495.92 -160.512L501.48 -173.936L501.48 -206.224L495.92 -219.648L473.088 -242.48L459.664 -248.04L427.376 -248.04L413.952 -242.48L391.12 -219.648L385.56 -206.224L385.56 -173.936L391.12 -160.512L413.952 -137.68L427.376 -132.12M443.52 -143.712L443.52 -143.712A46.368 46.368 0 0 1 443.52 -236.448A46.368 46.368 0 0 1 443.52 -143.712" fill="#000"/>
   </g>
   <g transform="matrix(1.000000,0.000000,0.000000,1.000000,570.240000,-190.080000)"/>
   <g>
    <path stroke="#f00" d="M554.096 -132.12L586.384 -132.12L599.808 -137.68L622.64 -160.512L628.2 -173.936L628.2 -206.224L622.64 -219.648L599.808 -242.48L586.384 -248.04L554.096 -248.04L540.672 -242.48L517.84 -219.648L512.28 -206.224L512.28 -173.936L517.84 -160.512L540.672 -137.68L554.096 -132.12"/>
   </g>
   <g>
    <path d="M554.096 -132.12L586.384 -132.12L599.808 -137.68L622.64 -160.512L628.2 -173.936L628.2 -206.224L622.64 -219.648L599.808 -242.48L586.384 -248.04L554.096 -248.04L540.672 -242.48L517.84 -219.648L512.28 -206.224L512.28 -173.936L517.84 -160.512L540.672 -137.68L554.096 -132.12M570.24 -143.712L570.24 -143.712A46.368 46.368 0 0 1 570.24 -236.448A46.368 46.368 0 0 1 570.24 -143.712" fill="#000"/>
   </g>
   <g transform="matrix(1.000000,0.000000,0.000000,1.000000,696.960000,-190.080000)"/>
   <g>
    <path stroke="#f00" d="M680.816 -132.12L713.104 -132.12L726.528 -137.68L749.36 -160.512L754.92 -173.936L754.92 -206.224L749.36 -219.648L726.528 -242.48L713.104 -248.04L680.816 -248.04L667.392 -242.48L644.56 -219.648L639 -206.224L639 -173.936L644.56 -160.512L667.392 -137.68L680.816 -132.12"/>
   </g>
   <g>
    <path d="M680.816 -132.12L713.104 -132.12L726.528 -137.68L749.36 -160.512L754.92 -173.936L754.92 -206.224L749.36 -219.648L726.528 -242.48L713.104 -248.04L680.816 -248.04L667.392 -242.48L644.56 -219.648L639 -206.224L639 -173.936L644.56 -160.512L667.392 -137.68L680.816 -132.12M696.96 -143.712L696.96 -143.712A46.368 46.368 0 0 1 696.96 -236.448A46.368 46.368 0 0 1 696.96 -143.712" fill="#000"/>
   </g>
   <g transform="matrix(1.000000,0.000000,0.000000,1.000000,823.680000,-190.080000)"/>
   <g>
    <path stroke="#f00" d="M807.536 -132.12L839.824 -132.12L853.248 -137.68L876.08 -160.512L881.64 -173.936L881.64 -206.224L876.08 -219.648L853.248 -242.48L839.824 -248.04L807.536 -248.04L794.112 -242.48L771.28 -219.648L765.72 -206.224L765.72 -173.936L771.28 -160.512L794.112 -137.68L807.536 -132.12"/>
   </g>
   <g>
    <path d="M807.536 -132.12L839.824 -132.12L853.248 -137.68L876.08 -160.512L881.64 -173.936L881.64 -206.224L876.08 -219.648L853.248 -242.48L839.824 -248.04L807.536 -248.04L794.112 -242.48L771.28 -219.648L765.72 -206.224L765.72 -173.936L771.28 -160.512L794.112 -137.68L807.536 -132.12M823.68 -143.712L823.68 -143.712A46.368 46.368 0 0 1 823.68 -236.448A46.368 46.368 0 0 1 823.68 -143.712" fill="#000"/>
   </g>
   <g transform="matrix(1.000000,0.000000,0.000000,1.000000,950.400000,-190.080000)"/>
   <g>
    <path stroke="#f00" d="M934.256 -132.12L966.544 -132.12L979.968 -137.68L1002.8 -160.512L1008.36 -173.936L1008.36 -206.224L1002.8 -219.648L979.968 -242.48L966.544 -248.04L934.256 -248.04L920.832 -242.48L898 -219.648L892.44 -206.224L892.44 -173.936L898 -160.512L920.832 -137.68L934.256 -132.12"/>
   </g>
   <g>
    <path d="M934.256 -132.12L966.544 -132.12L979.968 -137.68L1002.8 -160.512L1008.36 -173.936L1008.36 -206.224L1002.8 -219.648L979.968 -242.48L966.544 -248.04L934.256 -248.04L920.832 -242.48L898 -219.648L892.44 -206.224L892.44 -173.936L898 -160.512L920.832 -137.68L934.256 -132.12M950.4 -143.712L950.4 -143.712A46.368 46.368 0 0 1 950.4 -236.448A46.368 46.368 0 0 1 950.4 -143.712" fill="#000"/>
   </g>
   <g transform="matrix(1.000000,0.000000,0.000000,1.000000,1077.120000,-190.080000)"/>
   <g>
    <path stroke="#f00" d="M1060.98 -132.12L1093.26 -132.12L1106.69 -137.68L1129.52 -160.512L1135.08 -173.936L1135.08 -206.224L1129.52 -219.648L1106.69 -242.48L1093.26 -248.04L1060.98 -248.04L1047.55 -242.48L1024.72 -219.648L1019.16 -206.224L1019.16 -173.936L1024.72 -160.512L1047.55 -137.68L1060.98 -132.12"/>
   </g>
   <g>
    <path d="M1060.98 -132.12L1093.26 -132.12L1106.69 -137.68L1129.52 -160.512L1135.08 -173.936L1135.08 -206.224L1129.52 -219.648L1106.69 -242.48L1093.26 -248.04L1060.98 -248.04L1047.55 -242.48L1024.72 -219.648L1019.16 -206.224L1019.16 -173.936L1024.72 -160.512L1047.55 -137.68L1060.98 -132.12M1077.12 -143.712L1077.12 -143.712A46.368 46.368 0 0 1 1077.12 -236.448A46.368 46.368 0 0 1 1077.12 -143.712" fill="#000"/>
   </g>
   <g transform="matrix(1.000000,0.000000,0.000000,1.000000,1203.840000,-190.080000)"/>
   <g>
    <path stroke="#f00" d="M1187.7 -132.12L1219.98 -132.12L1233.41 -137.68L1256.24 -160.512L1261.8 -173.936L1261.8 -206.224L1256.24 -219.648L1233.41 -242.48L1219.98 -248.04L1187.7 -248.04L1174.27 -242.48L1151.44 -219.648L1145.88 -206.224L1145.88 -173.936L1151.44 -160.512L1174.27 -137.68L1187.7 -132.12"/>
   </g>
   <g>
    <path d="M1187.7 -132.12L1219.98 -132.12L1233.41 -137.68L1256.24 -160.512L1261.8 -173.936L1261.8 -206.224L1256.24 -219.648L1233.41 -242.48L1219.98 -248.04L1187.7 -248.04L1174.27 -242.48L1151.44 -219.648L1145.88 -206.224L1145.88 -173.936L1151.44 -160.512L1174.27 -137.68L1187.7 -132.12M1203.84 -143.712L1203.84 -143.712A46.368 46.368 0 0 1 1203.84 -236.448A46.368 46.368 0 0 1 1203.84 -143.712" fill="#000"/>
   </g>
   <g transform="matrix(1.000000,0.000000,0.000000,1.000000,63.360000,-316.800000)"/>
   <g>
    <path stroke="#f00" d="M47.2157 -258.84L79.5043 -258.84L92.9282 -264.4L115.76 -287.232L121.32 -300.656L121.32 -332.944L115.76 -346.368L92.9282 -369.2L79.5043 -374.76L47.2157 -374.76L33.7918 -369.2L10.9603 -346.368L5.4 -332.944L5.4 -300.656L10.9603 -287.232L33.7918 -264.4L47.2157 -258.84"/>
   </g>
   <g>
    <path d="M47.2157 -258.84L79.5043 -258.84L92.9282 -264.4L115.76 -287.232L121.32 -300.656L121.32 -332.944L115.76 -346.368L92.9282 -369.2L79.5043 -374.76L47.2157 -374.76L33.7918 -369.2L10.9603 -346.368L5.4 -332.944L5.4 -300.656L10.9603 -287.232L33.7918 -264.4L47.2157 -258.84M63.36 -270.432L63.36 -270.432A46.368 46.368 0 0 1 63.36 -363.168A46.368 46.368 0 0 1 63.36 -270.432" fill="#000"/>
   </g>
   <g transform="matrix(1.000000,0.000000,0.000000,1.000000,190.080000,-316.800000)"/>
   <g>
    <path stroke="#f00" d="M173.936 -258.84L206.224 -258.84L219.648 -264.4L242.48 -287.232L248.04 -300.656L248.04 -332.944L242.48 -346.368L219.648 -369.2L206.224 -374.76L173.936 -374.76L160.512 -369.2L137.68 -346.368L132.12 -332.944L132.12 -300.656L137.68 -287.232L160.512 -264.4L173.936 -258.84"/>
   </g>
   <g>
    <path d="M173.936 -258.84L206.224 -258.84L219.648 -264.4L242.48 -287.232L248.04 -300.656L248.04 -332.944L242.48 -346.368L219.648 -369.2L206.224 -374.76L173.936 -374.76L160.512 -369.2L137.68 -346.368L132.12 -332.944L132.12 -300.656L137.68 -287.232L160.512 -264.4L173.936 -258.84M190.08 -270.432L190.08 -270.432A46.368 46.368 0 0 1 190.08 -363.168A46.368 46.368 0 0 1 190.08 -270.432" fill="#000"/>
   </g>
  </g>
 </g>
</svg>
