<?xml version="1.0" encoding="utf-8"?>
<svg xmlns="http://www.w3.org/2000/svg" x="9.44pt" version="1.1" stroke-miterlimit="10.000000" y="-677.44pt" height="562.88pt" stroke-width="0.566929" width="1385.12pt" viewBox="9.44 -677.44 1385.12 562.88" fill="none">
 <defs>
  <clipPath id="clippath137727072920016">
   <path d="M0 -0L1404 -0L1404 -792L0 -792Z"/>
  </clipPath>
 </defs>
 <g transform="matrix(1.000000,0.000000,0.000000,1.000000,5.040000,-110.160000)">
  <g clip-path="url(#clippath137727072920016)">
   <g transform="matrix(1.000000,0.000000,0.000000,1.000000,79.560000,-79.560000)"/>
   <g>
    <path stroke="#f00" d="M58.9033 -5.4L100.217 -5.4L117.393 -12.5145L146.606 -41.7274L153.72 -58.9033L153.72 -100.217L146.606 -117.393L117.393 -146.606L100.217 -153.72L58.9033 -153.72L41.7274 -146.606L12.5145 -117.393L5.4 -100.217L5.4 -58.9033L12.5145 -41.7274L41.7274 -12.5145L58.9033 -5.4"/>
   </g>
   <g>
    <path fill="#000" d="M58.9033 -5.4L100.217 -5.4L117.393 -12.5145L146.606 -41.7274L153.72 -58.9033L153.72 -100.217L146.606 -117.393L117.393 -146.606L100.217 -153.72L58.9033 -153.72L41.7274 -146.606L12.5145 -117.393L5.4 -100.217L5.4 -58.9033L12.5145 -41.7274L41.7274 -12.5145L58.9033 -5.4M79.56 -20.232L79.56 -20.232A59.328 59.328 0 0 1 79.56 -138.888A59.328 59.328 0 0 1 79.56 -20.232"/>
   </g>
   <g transform="matrix(1.000000,0.000000,0.000000,1.000000,238.680000,-79.560000)"/>
   <g>
    <path stroke="#f00" d="M218.023 -5.4L259.337 -5.4L276.513 -12.5145L305.726 -41.7274L312.84 -58.9033L312.84 -100.217L305.726 -117.393L276.513 -146.606L259.337 -153.72L218.023 -153.72L200.847 -146.606L171.634 -117.393L164.52 -100.217L164.52 -58.9033L171.634 -41.7274L200.847 -12.5145L218.023 -5.4"/>
   </g>
   <g>
    <path fill="#000" d="M218.023 -5.4L259.337 -5.4L276.513 -12.5145L305.726 -41.7274L312.84 -58.9033L312.84 -100.217L305.726 -117.393L276.513 -146.606L259.337 -153.72L218.023 -153.72L200.847 -146.606L171.634 -117.393L164.52 -100.217L164.52 -58.9033L171.634 -41.7274L200.847 -12.5145L218.023 -5.4M238.68 -20.232L238.68 -20.232A59.328 59.328 0 0 1 238.68 -138.888A59.328 59.328 0 0 1 238.68 -20.232"/>
   </g>
   <g transform="matrix(1.000000,0.000000,0.000000,1.000000,397.800000,-79.560000)"/>
   <g>
    <path stroke="#f00" d="M377.143 -5.4L418.457 -5.4L435.633 -12.5145L464.846 -41.7274L471.96 -58.9033L471.96 -100.217L464.846 -117.393L435.633 -146.606L418.457 -153.72L377.143 -153.72L359.967 -146.606L330.754 -117.393L323.64 -100.217L323.64 -58.9033L330.754 -41.7274L359.967 -12.5145L377.143 -5.4"/>
   </g>
   <g>
    <path fill="#000" d="M377.143 -5.4L418.457 -5.4L435.633 -12.5145L464.846 -41.7274L471.96 -58.9033L471.96 -100.217L464.846 -117.393L435.633 -146.606L418.457 -153.72L377.143 -153.72L359.967 -146.606L330.754 -117.393L323.64 -100.217L323.64 -58.9033L330.754 -41.7274L359.967 -12.5145L377.143 -5.4M397.8 -20.232L397.8 -20.232A59.328 59.328 0 0 1 397.8 -138.888A59.328 59.328 0 0 1 397.8 -20.232"/>
   </g>
   <g transform="matrix(1.000000,0.000000,0.000000,1.000000,556.920000,-79.560000)"/>
   <g>
    <path stroke="#f00" d="M536.263 -5.4L577.577 -5.4L594.753 -12.5145L623.966 -41.7274L631.08 -58.9033L631.08 -100.217L623.966 -117.393L594.753 -146.606L577.577 -153.72L536.263 -153.72L519.087 -146.606L489.874 -117.393L482.76 -100.217L482.76 -58.9033L489.874 -41.7274L519.087 -12.5145L536.263 -5.4"/>
   </g>
   <g>
    <path fill="#000" d="M536.263 -5.4L577.577 -5.4L594.753 -12.5145L623.966 -41.7274L631.08 -58.9033L631.08 -100.217L623.966 -117.393L594.753 -146.606L577.577 -153.72L536.263 -153.72L519.087 -146.606L489.874 -117.393L482.76 -100.217L482.76 -58.9033L489.874 -41.7274L519.087 -12.5145L536.263 -5.4M556.92 -20.232L556.92 -20.232A59.328 59.328 0 0 1 556.92 -138.888A59.328 59.328 0 0 1 556.92 -20.232"/>
   </g>
   <g transform="matrix(1.000000,0.000000,0.000000,1.000000,716.040000,-79.560000)"/>
   <g>
    <path stroke="#f00" d="M695.383 -5.4L736.697 -5.4L753.873 -12.5145L783.086 -41.7274L790.2 -58.9033L790.2 -100.217L783.086 -117.393L753.873 -146.606L736.697 -153.72L695.383 -153.72L678.207 -146.606L648.994 -117.393L641.88 -100.217L641.88 -58.9033L648.994 -41.7274L678.207 -12.5145L695.383 -5.4"/>
   </g>
   <g>
    <path fill="#000" d="M695.383 -5.4L736.697 -5.4L753.873 -12.5145L783.086 -41.7274L790.2 -58.9033L790.2 -100.217L783.086 -117.393L753.873 -146.606L736.697 -153.72L695.383 -153.72L678.207 -146.606L648.994 -117.393L641.88 -100.217L641.88 -58.9033L648.994 -41.7274L678.207 -12.5145L695.383 -5.4M716.04 -20.232L716.04 -20.232A59.328 59.328 0 0 1 716.04 -138.888A59.328 59.328 0 0 1 716.04 -20.232"/>
   </g>
   <g transform="matrix(1.000000,0.000000,0.000000,1.000000,875.160000,-79.560000)"/>
   <g>
    <path stroke="#f00" d="M854.503 -5.4L895.817 -5.4L912.993 -12.5145L942.206 -41.7274L949.32 -58.9033L949.32 -100.217L942.206 -117.393L912.993 -146.606L895.817 -153.72L854.503 -153.72L837.327 -146.606L808.114 -117.393L801 -100.217L801 -58.9033L808.114 -41.7274L837.327 -12.5145L854.503 -5.4"/>
   </g>
   <g>
    <path fill="#000" d="M854.503 -5.4L895.817 -5.4L912.993 -12.5145L942.206 -41.7274L949.32 -58.9033L949.32 -100.217L942.206 -117.393L912.993 -146.606L895.817 -153.72L854.503 -153.72L837.327 -146.606L808.114 -117.393L801 -100.217L801 -58.9033L808.114 -41.7274L837.327 -12.5145L854.503 -5.4M875.16 -20.232L875.16 -20.232A59.328 59.328 0 0 1 875.16 -138.888A59.328 59.328 0 0 1 875.16 -20.232"/>
   </g>
   <g transform="matrix(1.000000,0.000000,0.000000,1.000000,1034.280000,-79.560000)"/>
   <g>
    <path stroke="#f00" d="M1013.62 -5.4L1054.94 -5.4L1072.11 -12.5145L1101.33 -41.7274L1108.44 -58.9033L1108.44 -100.217L1101.33 -117.393L1072.11 -146.606L1054.94 -153.72L1013.62 -153.72L996.447 -146.606L967.234 -117.393L960.12 -100.217L960.12 -58.9033L967.234 -41.7274L996.447 -12.5145L1013.62 -5.4"/>
   </g>
   <g>
    <path fill="#000" d="M1013.62 -5.4L1054.94 -5.4L1072.11 -12.5145L1101.33 -41.7274L1108.44 -58.9033L1108.44 -100.217L1101.33 -117.393L1072.11 -146.606L1054.94 -153.72L1013.62 -153.72L996.447 -146.606L967.234 -117.393L960.12 -100.217L960.12 -58.9033L967.234 -41.7274L996.447 -12.5145L1013.62 -5.4M1034.28 -20.232L1034.28 -20.232A59.328 59.328 0 0 1 1034.28 -138.888A59.328 59.328 0 0 1 1034.28 -20.232"/>
   </g>
   <g transform="matrix(1.000000,0.000000,0.000000,1.000000,1193.400000,-79.560000)"/>
   <g>
    <path stroke="#f00" d="M1172.74 -5.4L1214.06 -5.4L1231.23 -12.5145L1260.45 -41.7274L1267.56 -58.9033L1267.56 -100.217L1260.45 -117.393L1231.23 -146.606L1214.06 -153.72L1172.74 -153.72L1155.57 -146.606L1126.35 -117.393L1119.24 -100.217L1119.24 -58.9033L1126.35 -41.7274L1155.57 -12.5145L1172.74 -5.4"/>
   </g>
   <g>
    <path fill="#000" d="M1172.74 -5.4L1214.06 -5.4L1231.23 -12.5145L1260.45 -41.7274L1267.56 -58.9033L1267.56 -100.217L1260.45 -117.393L1231.23 -146.606L1214.06 -153.72L1172.74 -153.72L1155.57 -146.606L1126.35 -117.393L1119.24 -100.217L1119.24 -58.9033L1126.35 -41.7274L1155.57 -12.5145L1172.74 -5.4M1193.4 -20.232L1193.4 -20.232A59.328 59.328 0 0 1 1193.4 -138.888A59.328 59.328 0 0 1 1193.4 -20.232"/>
   </g>
   <g transform="matrix(1.000000,0.000000,0.000000,1.000000,79.560000,-238.680000)"/>
   <g>
    <path stroke="#f00" d="M58.9033 -164.52L100.217 -164.52L117.393 -171.634L146.606 -200.847L153.72 -218.023L153.72 -259.337L146.606 -276.513L117.393 -305.726L100.217 -312.84L58.9033 -312.84L41.7274 -305.726L12.5145 -276.513L5.4 -259.337L5.4 -218.023L12.5145 -200.847L41.7274 -171.634L58.9033 -164.52"/>
   </g>
   <g>
    <path fill="#000" d="M58.9033 -164.52L100.217 -164.52L117.393 -171.634L146.606 -200.847L153.72 -218.023L153.72 -259.337L146.606 -276.513L117.393 -305.726L100.217 -312.84L58.9033 -312.84L41.7274 -305.726L12.5145 -276.513L5.4 -259.337L5.4 -218.023L12.5145 -200.847L41.7274 -171.634L58.9033 -164.52M79.56 -179.352L79.56 -179.352A59.328 59.328 0 0 1 79.56 -298.008A59.328 59.328 0 0 1 79.56 -179.352"/>
   </g>
   <g transform="matrix(1.000000,0.000000,0.000000,1.000000,222.480000,-254.880000)">
    <g>
     <path fill="#000" d="M-30.8698 -4.28128M-21.303 -8.70306C-21.303 -9.28161 -21.551 -9.92215 -22.0469 -10.6453C-22.5635 -11.3479 -23.1213 -11.9677 -23.7412 -12.505C-25.3529 -13.8894 -26.1587 -14.7365 -26.1587 -15.0465C-26.1587 -15.6043 -25.3736 -16.2036 -23.7825 -16.8028C-23.328 -16.9887 -22.8114 -17.1334 -22.2122 -17.2573C-21.6336 -17.402 -21.1997 -17.5053 -20.9105 -17.5879C-20.6212 -17.6706 -20.4765 -17.7739 -20.4765 -17.9185C-20.4765 -18.2078 -20.6212 -18.4764 -20.8898 -18.745C-21.1584 -19.0137 -21.5097 -19.1376 -21.9023 -19.1376C-22.6668 -19.1376 -23.6172 -18.8897 -24.7743 -18.3938C-25.8901 -17.8979 -26.7373 -17.3607 -27.2745 -16.7614C-27.4398 -16.5755 -27.5844 -16.3069 -27.7291 -15.9143C-27.8737 -15.5217 -27.9357 -15.1704 -27.9357 -14.8192C-27.9357 -14.4679 -27.6878 -14.0133 -27.1919 -13.4141C-26.696 -12.8149 -26.1381 -12.257 -25.5595 -11.7611C-24.9396 -11.2239 -24.4024 -10.6867 -23.9065 -10.1081C-23.4106 -9.52956 -23.1627 -9.05432 -23.1627 -8.68239C-23.1627 -8.10384 -23.5346 -7.56662 -24.2784 -7.07072C-25.043 -6.57482 -25.8901 -6.32687 -26.8613 -6.32687C-27.3365 -6.32687 -27.7704 -6.43018 -28.2043 -6.63681C-28.6176 -6.84343 -28.9482 -7.07072 -29.1961 -7.29801C-29.8367 -7.95921 -30.2706 -8.28981 -30.4979 -8.28981C-30.7458 -8.28981 -30.8698 -8.08318 -30.8698 -7.66993C-30.8698 -7.07072 -30.4359 -6.43018 -29.5887 -5.72765C-28.7415 -5.06645 -27.6464 -4.71519 -26.3447 -4.71519C-25.0223 -4.71519 -23.8445 -5.10778 -22.8321 -5.85163C-21.8196 -6.63681 -21.303 -7.56662 -21.303 -8.70306ZM-21.303 -8.70306M-19.2575 -4.28128M-13.1207 -11.3272C-13.1207 -10.2941 -13.4719 -9.19896 -14.1745 -8.04186C-14.8563 -6.86409 -15.7035 -6.18223 -16.6953 -5.99627C-17.2119 -6.26488 -17.4805 -6.92608 -17.4805 -7.97987C-17.4805 -9.03366 -17.1499 -10.1701 -16.4473 -11.3892C-15.7861 -12.5876 -14.9596 -13.3108 -14.0092 -13.5794C-13.7199 -13.3934 -13.4926 -13.0835 -13.348 -12.6703C-13.2033 -12.2363 -13.1207 -11.8024 -13.1207 -11.3272ZM-13.1207 -11.3272M-16.654 -13.786C-17.4391 -13.1042 -18.059 -12.2157 -18.5549 -11.1412C-19.0095 -10.0668 -19.2575 -9.03366 -19.2575 -8.04186C-19.2575 -7.02939 -19.0302 -6.20289 -18.5549 -5.56235C-18.0797 -4.92182 -17.5011 -4.59122 -16.7986 -4.59122C-15.8481 -4.59122 -14.9596 -4.94248 -14.0918 -5.60368C-13.2653 -6.30621 -12.5835 -7.15337 -12.1082 -8.20716C-11.633 -9.24028 -11.385 -10.2527 -11.385 -11.2652C-11.385 -12.257 -11.6536 -13.1042 -12.2115 -13.786C-12.7694 -14.4886 -13.4513 -14.8398 -14.2571 -14.8398C-15.0836 -14.8398 -15.8895 -14.4886 -16.654 -13.786ZM-16.654 -13.786M-10.2693 -4.28128M-1.15708 -20.6253C-1.46702 -20.6253 -1.61166 -20.4187 -1.61166 -20.0055C-1.67364 -18.3111 -2.06623 -15.9969 -2.76876 -13.0835C-3.16135 -14.2613 -3.84321 -14.8398 -4.81435 -14.8398C-5.78549 -14.8398 -6.7153 -14.3646 -7.58313 -13.3934C-8.45095 -12.4223 -9.11215 -11.3479 -9.56673 -10.1908C-10.042 -8.99233 -10.2693 -7.97987 -10.2693 -7.13271C-10.2693 -6.53349 -10.0213 -5.9756 -9.5254 -5.41772C-9.05016 -4.85983 -8.49228 -4.59122 -7.89306 -4.59122C-6.8806 -4.59122 -5.70284 -5.27308 -4.35977 -6.65747C-4.46309 -6.12024 -4.50441 -5.76898 -4.50441 -5.58302C-4.50441 -5.39705 -4.4011 -5.19043 -4.15315 -4.94248C-3.94652 -4.71519 -3.71923 -4.59122 -3.53327 -4.59122C-3.22333 -4.59122 -2.56213 -6.59548 -1.57033 -10.6247C-1.11576 -12.4223 -0.723169 -14.158 -0.371906 -15.811C-0.020643 -17.5053 0.144657 -18.5178 0.144657 -18.869C0.144657 -19.2203 -0.020643 -19.6129 -0.351243 -20.0261C-0.661181 -20.4187 -0.929794 -20.6253 -1.15708 -20.6253ZM-1.15708 -20.6253M-3.42996 -10.48L-3.42996 -10.3767L-3.49195 -10.1288C-3.9052 -9.07498 -4.5664 -8.16583 -5.47555 -7.40132C-6.40536 -6.63681 -7.12855 -6.24422 -7.66578 -6.24422C-7.91373 -6.24422 -8.12035 -6.32687 -8.30631 -6.47151C-8.49228 -6.61614 -8.57493 -6.82277 -8.57493 -7.07072C-8.57493 -7.75258 -8.38896 -8.57908 -8.0377 -9.52956C-7.66578 -10.4594 -7.16988 -11.3065 -6.55 -12.0297C-5.93012 -12.7529 -5.33091 -13.1248 -4.7317 -13.1248C-4.38043 -13.1248 -4.0705 -12.8769 -3.82255 -12.3603C-3.55393 -11.8438 -3.42996 -11.2239 -3.42996 -10.48ZM-3.42996 -10.48M0.24797 -4.28128M3.28536 -18.5591C3.05807 -18.3111 2.95476 -18.0425 2.95476 -17.7739C2.95476 -17.5053 3.16139 -17.154 3.55397 -16.7614C3.96722 -16.3689 4.33915 -16.1622 4.66975 -16.1622C4.81439 -16.1622 4.93836 -16.2242 5.06234 -16.3275C5.18631 -16.4308 5.2483 -16.5548 5.2483 -16.6995C5.2483 -17.0714 5.083 -17.5466 4.77306 -18.0838C4.46312 -18.6624 4.17385 -18.931 3.96722 -18.931C3.71927 -18.931 3.51265 -18.807 3.28536 -18.5591ZM3.28536 -18.5591M2.85145 -14.8398C2.64482 -14.8398 2.4382 -14.5092 2.25223 -13.8274C2.14892 -13.4761 2.06627 -13.1248 1.98362 -12.7529C1.92163 -12.4223 1.81832 -11.9471 1.69435 -11.3892C1.57037 -10.8106 1.4464 -10.2941 1.32242 -9.8395C1.21911 -9.38492 1.05381 -8.78571 0.867845 -8.08318C0.66122 -7.33933 0.49592 -6.76078 0.41327 -6.34753C0.289295 -5.89295 0.24797 -5.58302 0.24797 -5.39705C0.24797 -5.19043 0.309957 -5.00447 0.454595 -4.85983C0.599233 -4.69453 0.764533 -4.61188 0.950495 -4.61188C1.30176 -4.61188 1.6117 -4.96314 1.83898 -5.645C2.4382 -7.52529 2.95476 -9.19896 3.34735 -10.728C3.73994 -12.2157 3.94656 -13.1248 3.94656 -13.4348C3.94656 -13.7447 3.82259 -14.0547 3.5953 -14.3646C3.36801 -14.6745 3.12006 -14.8398 2.85145 -14.8398ZM2.85145 -14.8398M4.9177 -4.28128M12.7075 -14.7159C12.6455 -14.6332 12.6042 -14.4886 12.5422 -14.2613C12.2529 -13.2075 11.819 -12.071 11.2198 -10.852C10.6206 -9.63287 9.95935 -8.55842 9.25683 -7.62861C8.51298 -6.69879 7.8931 -6.24422 7.37654 -6.24422C7.19058 -6.24422 7.02528 -6.30621 6.88064 -6.47151C6.736 -6.59548 6.67401 -6.78144 6.67401 -7.00873C6.67401 -7.77324 6.85998 -8.68239 7.2319 -9.69486C7.60383 -10.728 7.97575 -11.6371 8.34768 -12.381C8.7196 -13.1662 8.90557 -13.6001 8.90557 -13.7241C8.90557 -14.0133 8.80225 -14.2819 8.63695 -14.4886C8.43033 -14.7365 8.2237 -14.8398 7.97575 -14.8398C7.45919 -14.8398 6.81865 -13.8687 6.0748 -11.8851C5.28962 -9.94281 4.9177 -8.28981 4.9177 -6.98807C4.9177 -6.43018 5.16565 -5.89295 5.66155 -5.37639C6.15745 -4.85983 6.69468 -4.59122 7.2319 -4.59122C7.81045 -4.59122 8.40967 -4.90115 9.09153 -5.50037C9.77339 -6.09958 10.3933 -6.88476 10.9718 -7.81457C10.6619 -6.76078 10.4966 -6.03759 10.4966 -5.645C10.4966 -5.25242 10.5586 -4.96314 10.6825 -4.8185C10.8065 -4.67387 10.9512 -4.59122 11.1371 -4.59122C11.4471 -4.59122 11.6743 -4.88049 11.8396 -5.45904C12.1702 -6.59548 12.6455 -8.14517 13.2447 -10.0874C13.8439 -12.0297 14.1538 -13.0835 14.1538 -13.2695C14.1538 -13.6001 14.0092 -13.9513 13.7613 -14.3026C13.472 -14.6539 13.2654 -14.8398 13.0587 -14.8398C12.8934 -14.8398 12.7695 -14.7985 12.7075 -14.7159ZM12.7075 -14.7159M14.9803 -4.28128M28.535 -14.8398C27.2126 -14.8398 25.7455 -13.2695 24.1132 -10.1081C24.2785 -10.9553 24.3611 -11.6785 24.3611 -12.257C24.3611 -12.8356 24.1338 -13.4141 23.6586 -13.9927C23.204 -14.5506 22.8114 -14.8398 22.4808 -14.8398C21.923 -14.8398 21.3857 -14.5506 20.8485 -13.9513C20.5592 -13.6207 20.208 -13.1868 19.8154 -12.6496C19.4228 -12.1124 18.4517 -10.3974 16.902 -7.50463C17.8111 -10.2941 18.2657 -12.2777 18.2657 -13.4968C18.2657 -13.8067 18.1211 -14.1373 17.8318 -14.4472C17.5218 -14.7572 17.2326 -14.9225 16.9226 -14.9225C16.7367 -14.9225 16.6127 -14.6952 16.5714 -14.1993C16.53 -13.7447 16.468 -12.9802 16.3854 -11.9677C16.2821 -10.9346 16.1581 -10.1288 15.9721 -9.52956C15.8068 -8.95101 15.6622 -8.45511 15.5176 -8.00053C15.3936 -7.58728 15.3109 -7.25668 15.2283 -7.02939C15.187 -6.80211 15.125 -6.57482 15.063 -6.34753C15.001 -6.12024 14.9803 -5.91362 14.9803 -5.76898C14.9803 -5.60368 15.125 -5.35573 15.3936 -5.06645C15.6622 -4.73585 15.8895 -4.59122 16.0548 -4.59122C16.2408 -4.59122 16.5094 -4.83917 16.8813 -5.35573C17.0673 -5.62434 17.2119 -5.85163 17.3772 -6.07892C17.5012 -6.30621 17.7078 -6.61614 17.9764 -7.00873C18.245 -7.42198 18.4723 -7.79391 18.6583 -8.08318C18.8649 -8.41378 19.1542 -8.86836 19.5674 -9.52956C19.9394 -10.1494 20.2493 -10.6247 20.4353 -10.9346C20.6212 -11.2445 20.8485 -11.5545 21.0965 -11.8851C21.3444 -12.2363 21.551 -12.4636 21.7163 -12.5876C21.8816 -12.7322 22.0469 -12.7942 22.1916 -12.7942C22.3362 -12.7942 22.4808 -12.6909 22.6048 -12.505C22.7288 -12.2983 22.7908 -12.0504 22.7908 -11.7611C22.7908 -10.2114 22.4395 -8.55842 21.7163 -6.76078C21.4684 -6.16157 21.3444 -5.74832 21.3444 -5.56235C21.3444 -5.37639 21.4477 -5.16977 21.6543 -4.94248C21.861 -4.71519 22.0469 -4.61188 22.2122 -4.61188C22.3982 -4.61188 22.6048 -4.77718 22.8321 -5.1491C23.0594 -5.4797 23.328 -5.9756 23.6586 -6.59548C23.9479 -7.21536 24.1545 -7.58728 24.2372 -7.71126C24.2991 -7.83523 24.3611 -7.95921 24.4438 -8.06252C24.4851 -8.16583 24.5471 -8.24848 24.5884 -8.33113C24.6297 -8.37246 24.8984 -8.8477 25.4149 -9.69486C25.9315 -10.542 26.4067 -11.2859 26.8406 -11.8851C27.2952 -12.4843 27.6878 -12.7942 28.0391 -12.7942C28.3077 -12.7942 28.4523 -12.3603 28.4523 -11.4718C28.4523 -10.604 28.2044 -9.42625 27.7498 -7.95921C27.2539 -6.47151 27.0266 -5.54169 27.0266 -5.1491C27.0266 -4.77718 27.1712 -4.59122 27.4605 -4.59122C27.8738 -4.59122 28.287 -5.06645 28.7209 -6.03759C29.1548 -7.00873 29.4854 -8.06252 29.7334 -9.21962C30.002 -10.3767 30.126 -11.3065 30.126 -12.0504C30.126 -12.7529 29.9607 -13.4141 29.6507 -13.9927C29.3201 -14.5506 28.9482 -14.8398 28.535 -14.8398ZM28.535 -14.8398"/>
     <path fill="#000" d="M-42.2135 20.6253M-33.8452 5.78963C-35.0643 5.78963 -36.3453 6.38885 -37.6884 7.56661C-39.0108 8.74437 -40.0853 10.1701 -40.9531 11.7818C-41.7796 13.4348 -42.2135 14.8811 -42.2135 16.1829C-42.2135 17.1953 -41.7796 18.1045 -40.9324 18.931C-40.0853 19.7782 -39.1761 20.1914 -38.205 20.1914C-37.4611 20.1914 -36.614 19.9848 -35.6841 19.5715C-34.7543 19.1583 -33.9691 18.683 -33.3286 18.1871C-32.6881 17.6499 -32.3781 17.2367 -32.3781 16.9474C-32.3781 16.6168 -32.5021 16.4722 -32.7294 16.4722C-32.8327 16.4722 -33.4526 16.7614 -34.5477 17.3606C-34.9816 17.5879 -35.5188 17.8152 -36.2007 17.9805C-36.8826 18.1871 -37.5231 18.2698 -38.1636 18.2698C-38.8042 18.2698 -39.3001 18.1045 -39.7133 17.7326C-40.0853 17.402 -40.2919 16.8441 -40.2919 16.0796C-40.2919 15.3151 -40.0439 14.4266 -39.5687 13.3934C-39.0935 12.3397 -38.5149 11.4098 -37.8124 10.604C-37.1512 9.79816 -36.4073 9.1163 -35.6635 8.55841C-34.8783 8.00052 -34.2378 7.73191 -33.7005 7.73191C-33.4732 7.73191 -33.2046 7.77323 -32.9154 7.89721C-32.6261 7.97986 -32.4401 8.04185 -32.3161 8.04185C-32.2335 8.04185 -32.1715 7.89721 -32.1715 7.60793C-32.1715 7.298 -32.3575 6.92607 -32.7294 6.4715C-33.122 6.01692 -33.4939 5.78963 -33.8452 5.78963ZM-33.8452 5.78963M-31.0351 20.6253M-23.3279 10.9966C-23.8445 10.3767 -24.4231 10.0668 -25.0429 10.0668C-25.8901 10.0668 -26.7993 10.542 -27.7704 11.4925C-28.7415 12.443 -29.5267 13.5174 -30.1259 14.7572C-30.7251 15.9556 -31.0351 16.9887 -31.0351 17.8152C-31.0351 18.3938 -30.7251 18.9517 -30.1053 19.5095C-29.506 20.0468 -28.8862 20.3154 -28.2456 20.3154C-27.1918 20.3154 -26.0554 19.5302 -24.8363 17.9805C-24.8157 18.6624 -24.7123 19.2203 -24.5677 19.6748C-24.4024 20.0881 -24.1958 20.3154 -23.9478 20.3154C-23.7619 20.3154 -23.6379 20.1501 -23.5759 19.7988C-23.5346 19.6335 -23.4932 19.4682 -23.4726 19.3029C-23.4519 19.117 -23.4106 18.8897 -23.3693 18.6004C-23.3486 18.3111 -23.2453 17.6912 -23.08 16.7614C-22.894 15.8316 -22.8114 15.1704 -22.8114 14.7778C-22.8114 14.6332 -22.894 14.4472 -23.0593 14.2406C-22.7081 13.724 -22.5428 13.2075 -22.5428 12.6909C-22.5428 12.195 -22.8114 11.6371 -23.3279 10.9966ZM-23.3279 10.9966M-24.0925 13.7034L-24.0925 13.724C-24.2784 13.7654 -24.4024 13.8893 -24.4437 14.096C-24.7537 15.3564 -25.3322 16.4102 -26.1381 17.278C-26.9439 18.1665 -27.6877 18.6004 -28.3283 18.6004C-28.5969 18.6004 -28.8242 18.5177 -29.0101 18.3938C-29.1961 18.2285 -29.2994 18.0425 -29.2994 17.8152C-29.2994 17.2573 -29.0515 16.4928 -28.5556 15.5217C-28.0597 14.5505 -27.4605 13.6827 -26.7373 12.9389C-26.0141 12.1537 -25.3942 11.7818 -24.857 11.7818C-24.3404 11.7818 -24.0925 12.4223 -24.0925 13.7034ZM-24.0925 13.7034M-20.8071 20.6253M-19.6087 12.5876C-19.6087 14.2199 -19.898 15.9143 -20.4559 17.6499C-20.6831 18.4144 -20.8071 18.9103 -20.8071 19.1789C-20.8071 19.4269 -20.7451 19.6748 -20.5798 19.9641C-20.4559 20.2121 -20.2492 20.3567 -20.0219 20.3567C-19.7327 20.3567 -19.4847 20.0881 -19.2574 19.5302C-19.1335 19.2203 -19.0301 18.9103 -18.9268 18.6004C-18.8235 18.2905 -18.6789 17.8359 -18.5136 17.278C-18.307 16.7201 -18.059 16.0176 -17.7491 15.1911C-17.4391 14.3646 -17.0259 13.6207 -16.53 12.9802C-16.0134 12.319 -15.3935 11.8231 -14.6704 11.5132C-14.3398 11.3272 -14.0918 11.1826 -13.9472 11.0379C-13.8025 10.8933 -13.7199 10.7486 -13.7199 10.5833C-13.7199 10.2527 -14.0505 10.0874 -14.7323 10.0874C-15.8068 10.0874 -16.9432 10.9966 -18.1417 12.8149C-18.121 12.5876 -18.1003 12.2363 -18.1003 11.7818C-18.1003 11.3065 -18.2243 10.9139 -18.4723 10.5833C-18.6995 10.2321 -18.9475 10.0668 -19.2161 10.0668C-19.526 10.0668 -19.6707 10.3974 -19.6707 11.0379ZM-19.6707 11.0379M-14.1951 20.6253M-13.1207 20.3154C-12.976 20.3154 -12.7694 19.8608 -12.4595 18.931L-12.4388 18.9103C-11.5296 19.8608 -10.5998 20.336 -9.67002 20.336C-8.74021 20.336 -7.83106 19.9228 -6.9839 19.1376C-6.13673 18.3111 -5.45487 17.3606 -4.93831 16.2242C-4.4424 15.0878 -4.19445 14.096 -4.19445 13.2281C-4.19445 12.3397 -4.42174 11.5958 -4.85566 10.9553C-5.31023 10.3147 -5.86812 10.0048 -6.50866 10.0048C-7.85172 10.0048 -9.33942 11.1206 -10.9718 13.3315C-10.2279 10.1907 -9.85599 7.77323 -9.85599 6.07891C-9.85599 5.68632 -10.0213 5.29373 -10.3312 4.88048C-10.6412 4.48789 -10.9098 4.28127 -11.1371 4.28127C-11.447 4.28127 -11.5916 4.48789 -11.5916 4.90114C-11.5916 6.69878 -11.7983 8.66172 -12.2528 10.8313C-12.6661 12.9802 -13.1207 14.8192 -13.5339 16.3482C-13.9885 17.8772 -14.1951 18.7657 -14.1951 19.0343C-14.1951 19.3029 -14.0711 19.5715 -13.8025 19.8815C-13.5339 20.1707 -13.3066 20.3154 -13.1207 20.3154ZM-13.1207 20.3154M-9.83532 18.7244C-10.5585 18.7244 -11.2404 18.3111 -11.8809 17.4846C-11.1577 15.9349 -10.3106 14.6125 -9.31876 13.4968C-8.34762 12.381 -7.45913 11.8231 -6.65329 11.8231C-6.15739 11.8231 -5.90944 12.2363 -5.90944 13.0422C-5.90944 14.3852 -6.34336 15.6663 -7.21118 16.9061C-8.05835 18.1045 -8.94683 18.7244 -9.83532 18.7244ZM-9.83532 18.7244M-3.05802 20.6253M3.07875 13.5794C3.07875 14.6125 2.72749 15.7076 2.02496 16.8647C1.3431 18.0425 0.495938 18.7244 -0.495863 18.9103C-1.01243 18.6417 -1.28104 17.9805 -1.28104 16.9267C-1.28104 15.8729 -0.950439 14.7365 -0.247913 13.5174C0.413287 12.319 1.23979 11.5958 2.19026 11.3272C2.47954 11.5132 2.70683 11.8231 2.85146 12.2363C2.9961 12.6703 3.07875 13.1042 3.07875 13.5794ZM3.07875 13.5794M-0.454538 11.1206C-1.23971 11.8024 -1.85959 12.6909 -2.35549 13.7654C-2.81007 14.8398 -3.05802 15.8729 -3.05802 16.8647C-3.05802 17.8772 -2.83073 18.7037 -2.35549 19.3442C-1.88025 19.9848 -1.3017 20.3154 -0.599176 20.3154C0.3513 20.3154 1.23979 19.9641 2.10761 19.3029C2.93412 18.6004 3.61598 17.7532 4.09122 16.6994C4.56645 15.6663 4.8144 14.6539 4.8144 13.6414C4.8144 12.6496 4.54579 11.8024 3.9879 11.1206C3.43002 10.418 2.74815 10.0668 1.94231 10.0668C1.11581 10.0668 0.309975 10.418 -0.454538 11.1206ZM-0.454538 11.1206M6.03349 20.6253M11.4677 11.6991C10.6206 12.8149 9.54612 14.4679 8.22372 16.7201C8.53366 15.7903 8.78161 14.7778 9.02956 13.6827C9.23618 12.6083 9.36016 11.8851 9.36016 11.4925C9.36016 11.1206 9.21552 10.7693 8.90558 10.4594C8.59565 10.1494 8.30637 9.98412 7.99643 9.98412C7.74848 9.98412 7.60384 10.48 7.56252 11.4925C7.54186 13.0009 7.35589 14.3439 7.04596 15.501C6.73602 16.6994 6.44674 17.6706 6.17813 18.4764C6.07482 18.7864 6.03349 18.9723 6.03349 19.0343C6.03349 19.2616 6.15747 19.5509 6.42608 19.8401C6.69469 20.1707 6.92198 20.3154 7.12861 20.3154C7.31457 20.3154 7.58318 20.0674 7.93445 19.5509C8.12041 19.2823 8.28571 19.055 8.40968 18.8277C8.57498 18.6004 8.76095 18.2905 9.0089 17.8979C9.25685 17.5053 9.46347 17.1747 9.60811 16.9474C9.75275 16.7201 9.98003 16.3688 10.2693 15.9143C10.5586 15.4597 10.7859 15.1084 10.9305 14.8811C11.0751 14.6332 11.2611 14.3439 11.5091 13.9927C11.7157 13.6414 11.9223 13.3934 12.0669 13.1868C12.2116 13.0215 12.3769 12.8149 12.5422 12.6289C12.7281 12.443 12.8728 12.2983 13.0174 12.2157C13.1621 12.133 13.286 12.0917 13.41 12.0917C13.5547 12.0917 13.6786 12.195 13.8233 12.4016C13.9472 12.6083 14.0092 12.9389 14.0092 13.3521C14.0092 13.8067 13.8853 14.4472 13.6166 15.2944C13.3687 16.1622 13.1001 17.03 12.7901 17.9392C12.5009 18.807 12.3562 19.4062 12.3562 19.6955C12.3562 20.1088 12.5009 20.3154 12.8108 20.3154C13.472 20.3154 14.2159 18.993 15.0424 16.3482C15.4969 14.9225 15.7242 13.7034 15.7242 12.7116C15.7242 12.071 15.4763 11.4718 15.0217 10.9139C14.5258 10.356 14.0299 10.0668 13.4927 10.0668C12.9761 10.0668 12.2942 10.6247 11.4677 11.6991ZM11.4677 11.6991M16.716 20.6253M24.4231 10.9966C23.9066 10.3767 23.328 10.0668 22.7081 10.0668C21.861 10.0668 20.9518 10.542 19.9807 11.4925C19.0096 12.443 18.2244 13.5174 17.6252 14.7572C17.026 15.9556 16.716 16.9887 16.716 17.8152C16.716 18.3938 17.026 18.9517 17.6458 19.5095C18.245 20.0468 18.8649 20.3154 19.5055 20.3154C20.5592 20.3154 21.6957 19.5302 22.9148 17.9805C22.9354 18.6624 23.0387 19.2203 23.1834 19.6748C23.3487 20.0881 23.5553 20.3154 23.8033 20.3154C23.9892 20.3154 24.1132 20.1501 24.1752 19.7988C24.2165 19.6335 24.2578 19.4682 24.2785 19.3029C24.2992 19.117 24.3405 18.8897 24.3818 18.6004C24.4025 18.3111 24.5058 17.6912 24.6711 16.7614C24.857 15.8316 24.9397 15.1704 24.9397 14.7778C24.9397 14.6332 24.857 14.4472 24.6917 14.2406C25.043 13.724 25.2083 13.2075 25.2083 12.6909C25.2083 12.195 24.9397 11.6371 24.4231 10.9966ZM24.4231 10.9966M23.6586 13.7034L23.6586 13.724C23.4727 13.7654 23.3487 13.8893 23.3074 14.096C22.9974 15.3564 22.4189 16.4102 21.613 17.278C20.8072 18.1665 20.0633 18.6004 19.4228 18.6004C19.1542 18.6004 18.9269 18.5177 18.7409 18.3938C18.555 18.2285 18.4517 18.0425 18.4517 17.8152C18.4517 17.2573 18.6996 16.4928 19.1955 15.5217C19.6914 14.5505 20.2906 13.6827 21.0138 12.9389C21.737 12.1537 22.3569 11.7818 22.8941 11.7818C23.4107 11.7818 23.6586 12.4223 23.6586 13.7034ZM23.6586 13.7034M26.8407 20.6253M29.2168 18.2491C29.2168 17.9392 29.4441 17.092 29.878 15.7076C30.312 14.3026 30.6839 13.0628 30.9732 11.9677C32.3989 11.6785 33.3493 11.4718 33.7833 11.3272C34.2378 11.1826 34.4651 11.0172 34.4651 10.8106C34.4651 10.4594 34.0519 10.2734 33.2254 10.2734C32.7501 10.2734 32.1303 10.3147 31.3451 10.3767C31.5724 9.4469 31.6963 8.7857 31.6963 8.41377C31.6963 8.04185 31.531 7.71125 31.1798 7.40131C30.8285 7.11203 30.5392 6.9674 30.312 6.9674C30.0433 6.9674 29.8987 7.17402 29.8987 7.58727C29.8987 8.47576 29.7747 9.48822 29.5268 10.6247C27.7291 10.9346 26.8407 11.2445 26.8407 11.5751C26.8407 11.7818 26.944 11.9884 27.1713 12.2363C27.3779 12.443 27.5845 12.5669 27.8118 12.5669C28.0391 12.5669 28.473 12.4843 29.1135 12.3397C28.9276 12.9802 28.7003 13.8067 28.3697 14.7985C28.0804 15.7696 27.8325 16.5755 27.6672 17.154C27.5019 17.7739 27.4192 18.2491 27.4192 18.6417C27.4192 19.0343 27.6465 19.4062 28.0804 19.7575C28.5143 20.1294 29.0722 20.3154 29.7334 20.3154C30.4153 20.3154 31.1591 20.0468 31.965 19.5302C32.7915 19.0136 33.2047 18.5384 33.2047 18.1458C33.2047 17.8772 33.0807 17.7532 32.8328 17.7532C32.7501 17.7532 32.3369 17.8979 31.593 18.1871C30.8285 18.4971 30.188 18.6417 29.6714 18.6417C29.3615 18.6417 29.2168 18.5177 29.2168 18.2491ZM29.2168 18.2491M34.6511 20.6253M41.945 15.2944C42.7508 14.8192 43.1434 14.2199 43.1434 13.4761C43.1434 12.7529 42.8128 11.9884 42.1516 11.2239C41.4697 10.4594 40.7259 10.0668 39.92 10.0668C39.1142 10.0668 38.2877 10.4387 37.4612 11.1619C36.6347 11.8851 35.9528 12.7942 35.4363 13.848C34.9197 14.9225 34.6511 15.9556 34.6511 16.9267C34.6511 17.8979 34.9817 18.7244 35.6635 19.3442C36.3454 20.0054 37.2132 20.3154 38.2877 20.3154C39.0935 20.3154 39.8994 20.0881 40.7465 19.6748C41.5937 19.2203 42.0069 18.8277 42.0069 18.4558C42.0069 18.1871 41.821 18.0425 41.4697 18.0425C41.4077 18.0425 40.9945 18.1665 40.292 18.3938C39.5481 18.6417 38.8456 18.7657 38.1844 18.7657C37.4819 18.7657 37.0066 18.6417 36.6967 18.3731C36.4074 18.1045 36.2628 17.7326 36.2628 17.278C36.2628 16.7821 36.3661 16.2449 36.552 15.6457C37.3579 15.8729 38.267 15.9763 39.2588 15.9763C40.2713 15.9763 41.1598 15.749 41.945 15.2944ZM41.945 15.2944M40.0233 11.6991C40.3539 11.6991 40.6845 11.8851 41.0358 12.2777C41.3664 12.6703 41.5317 13.0422 41.5317 13.4141C41.5317 13.786 41.2631 14.096 40.7465 14.3026C40.23 14.5505 39.6101 14.6539 38.9076 14.6539C38.205 14.6539 37.5852 14.5919 37.0273 14.4679C37.4199 13.6827 37.8744 13.0215 38.4323 12.4843C38.9902 11.9677 39.5068 11.6991 40.0233 11.6991ZM40.0233 11.6991"/>
    </g>
   </g>
   <g>
    <path stroke="#f00" d="M206.336 -196.92L238.624 -196.92L252.048 -202.48L274.88 -225.312L280.44 -238.736L280.44 -271.024L274.88 -284.448L252.048 -307.28L238.624 -312.84L206.336 -312.84L192.912 -307.28L170.08 -284.448L164.52 -271.024L164.52 -238.736L170.08 -225.312L192.912 -202.48L206.336 -196.92"/>
   </g>
   <g>
    <path fill="#000" d="M206.336 -196.92L238.624 -196.92L252.048 -202.48L274.88 -225.312L280.44 -238.736L280.44 -271.024L274.88 -284.448L252.048 -307.28L238.624 -312.84L206.336 -312.84L192.912 -307.28L170.08 -284.448L164.52 -271.024L164.52 -238.736L170.08 -225.312L192.912 -202.48L206.336 -196.92M222.48 -208.512L222.48 -208.512A46.368 46.368 0 0 1 222.48 -301.248A46.368 46.368 0 0 1 222.48 -208.512"/>
   </g>
   <g transform="matrix(1.000000,0.000000,0.000000,1.000000,349.200000,-254.880000)">
    <g>
     <path fill="#000" d="M-42.6991 -4.834M-32.0372 -16.2604C-32.0372 -17.3555 -32.4711 -18.2233 -33.2976 -18.9052C-34.1654 -19.587 -35.2399 -19.9176 -36.5623 -19.9176C-37.4095 -19.9176 -38.3186 -19.7523 -39.2484 -19.4424C-40.1782 -19.1325 -40.6535 -18.8019 -40.6535 -18.4506C-40.6535 -18.2027 -40.4882 -17.934 -40.1576 -17.6241C-40.2196 -15.9918 -40.8601 -13.1197 -42.0999 -9.00783C-42.4924 -7.66476 -42.6991 -6.85893 -42.6991 -6.52833C-42.6991 -6.23905 -42.5751 -5.90845 -42.3065 -5.61918C-42.0379 -5.28858 -41.8106 -5.14394 -41.6246 -5.14394C-41.4387 -5.14394 -40.8394 -6.83826 -39.827 -10.2476C-37.4921 -10.7022 -35.6118 -11.446 -34.1654 -12.4791C-32.7604 -13.5123 -32.0372 -14.7727 -32.0372 -16.2604ZM-32.0372 -16.2604M-33.8555 -16.1364C-33.8555 -15.2892 -34.3721 -14.4627 -35.3639 -13.6776C-36.397 -12.913 -37.7194 -12.2932 -39.3724 -11.8593C-38.6905 -14.3594 -38.3599 -15.9918 -38.3599 -16.7563C-38.3599 -17.0249 -38.4219 -17.2935 -38.5666 -17.6034C-37.6367 -18.0167 -36.8516 -18.2233 -36.211 -18.2233C-35.5705 -18.2233 -35.0126 -18.0167 -34.5374 -17.6448C-34.0828 -17.2315 -33.8555 -16.7356 -33.8555 -16.1364ZM-33.8555 -16.1364M-31.624 -4.834M-25.4872 -11.8799C-25.4872 -10.8468 -25.8384 -9.75168 -26.541 -8.59458C-27.2228 -7.41681 -28.07 -6.73495 -29.0618 -6.54899C-29.5784 -6.8176 -29.847 -7.4788 -29.847 -8.53259C-29.847 -9.58638 -29.5164 -10.7228 -28.8139 -11.9419C-28.1527 -13.1403 -27.3261 -13.8635 -26.3757 -14.1321C-26.0864 -13.9462 -25.8591 -13.6362 -25.7145 -13.223C-25.5698 -12.7891 -25.4872 -12.3552 -25.4872 -11.8799ZM-25.4872 -11.8799M-29.0205 -14.3388C-29.8057 -13.6569 -30.4255 -12.7684 -30.9214 -11.694C-31.376 -10.6195 -31.624 -9.58638 -31.624 -8.59458C-31.624 -7.58211 -31.3967 -6.75561 -30.9214 -6.11508C-30.4462 -5.47454 -29.8676 -5.14394 -29.1651 -5.14394C-28.2146 -5.14394 -27.3261 -5.4952 -26.4583 -6.1564C-25.6318 -6.85893 -24.95 -7.70609 -24.4747 -8.75988C-23.9995 -9.793 -23.7515 -10.8055 -23.7515 -11.8179C-23.7515 -12.8097 -24.0201 -13.6569 -24.578 -14.3388C-25.1359 -15.0413 -25.8178 -15.3925 -26.6236 -15.3925C-27.4501 -15.3925 -28.256 -15.0413 -29.0205 -14.3388ZM-29.0205 -14.3388M-22.4291 -4.834M-20.0529 -7.21019C-20.0529 -7.52013 -19.8257 -8.36729 -19.3917 -9.75168C-18.9578 -11.1567 -18.5859 -12.3965 -18.2966 -13.4916C-16.8709 -13.7809 -15.9204 -13.9875 -15.4865 -14.1321C-15.0319 -14.2768 -14.8047 -14.4421 -14.8047 -14.6487C-14.8047 -15 -15.2179 -15.1859 -16.0444 -15.1859C-16.5197 -15.1859 -17.1395 -15.1446 -17.9247 -15.0826C-17.6974 -16.0124 -17.5734 -16.6736 -17.5734 -17.0455C-17.5734 -17.4175 -17.7387 -17.7481 -18.09 -18.058C-18.4413 -18.3473 -18.7305 -18.4919 -18.9578 -18.4919C-19.2264 -18.4919 -19.3711 -18.2853 -19.3711 -17.8721C-19.3711 -16.9836 -19.4951 -15.9711 -19.743 -14.8347C-21.5406 -14.5247 -22.4291 -14.2148 -22.4291 -13.8842C-22.4291 -13.6776 -22.3258 -13.4709 -22.0985 -13.223C-21.8919 -13.0164 -21.6853 -12.8924 -21.458 -12.8924C-21.2307 -12.8924 -20.7968 -12.975 -20.1563 -13.1197C-20.3422 -12.4791 -20.5695 -11.6526 -20.9001 -10.6608C-21.1894 -9.68969 -21.4373 -8.88385 -21.6026 -8.3053C-21.7679 -7.68543 -21.8506 -7.21019 -21.8506 -6.8176C-21.8506 -6.42501 -21.6233 -6.05309 -21.1894 -5.70183C-20.7555 -5.3299 -20.1976 -5.14394 -19.5364 -5.14394C-18.8545 -5.14394 -18.1107 -5.41255 -17.3048 -5.92911C-16.4783 -6.44568 -16.0651 -6.92091 -16.0651 -7.3135C-16.0651 -7.58211 -16.1891 -7.70609 -16.437 -7.70609C-16.5197 -7.70609 -16.9329 -7.56145 -17.6768 -7.27218C-18.4413 -6.96224 -19.0818 -6.8176 -19.5984 -6.8176C-19.9083 -6.8176 -20.0529 -6.94158 -20.0529 -7.21019ZM-20.0529 -7.21019M-14.8666 -4.834M-7.15953 -14.4627C-7.67609 -15.0826 -8.25464 -15.3925 -8.87452 -15.3925C-9.72168 -15.3925 -10.6308 -14.9173 -11.602 -13.9668C-12.5731 -13.0164 -13.3583 -11.9419 -13.9575 -10.7022C-14.5567 -9.50373 -14.8666 -8.4706 -14.8666 -7.6441C-14.8666 -7.06555 -14.5567 -6.50766 -13.9368 -5.94978C-13.3376 -5.41255 -12.7177 -5.14394 -12.0772 -5.14394C-11.0234 -5.14394 -9.88698 -5.92911 -8.66789 -7.4788C-8.64723 -6.79694 -8.54392 -6.23905 -8.39928 -5.78448C-8.23398 -5.37123 -8.02736 -5.14394 -7.7794 -5.14394C-7.59344 -5.14394 -7.46947 -5.30924 -7.40748 -5.6605C-7.36615 -5.8258 -7.32483 -5.9911 -7.30417 -6.1564C-7.2835 -6.34236 -7.24218 -6.56965 -7.20085 -6.85893C-7.18019 -7.1482 -7.07688 -7.76808 -6.91158 -8.69789C-6.72562 -9.6277 -6.64297 -10.2889 -6.64297 -10.6815C-6.64297 -10.8261 -6.72562 -11.0121 -6.89092 -11.2187C-6.53965 -11.7353 -6.37435 -12.2518 -6.37435 -12.7684C-6.37435 -13.2643 -6.64297 -13.8222 -7.15953 -14.4627ZM-7.15953 -14.4627M-7.92404 -11.7559L-7.92404 -11.7353C-8.11001 -11.694 -8.23398 -11.57 -8.27531 -11.3634C-8.58524 -10.1029 -9.16379 -9.04915 -9.96963 -8.18133C-10.7755 -7.29284 -11.5193 -6.85893 -12.1599 -6.85893C-12.4285 -6.85893 -12.6558 -6.94158 -12.8417 -7.06555C-13.0277 -7.23085 -13.131 -7.41681 -13.131 -7.6441C-13.131 -8.20199 -12.883 -8.9665 -12.3871 -9.93764C-11.8912 -10.9088 -11.292 -11.7766 -10.5688 -12.5205C-9.84566 -13.3056 -9.22578 -13.6776 -8.68856 -13.6776C-8.17199 -13.6776 -7.92404 -13.037 -7.92404 -11.7559ZM-7.92404 -11.7559M-5.19659 -4.834M1.22945 -15.3925C0.464941 -15.3925 -0.485535 -15 -1.64264 -14.2148C-2.77907 -13.4089 -3.35763 -12.6444 -3.35763 -11.9212C-3.35763 -11.508 -3.151 -11.0947 -2.75841 -10.7022C-2.36582 -10.3096 -1.93191 -9.9583 -1.43601 -9.68969C-0.981435 -9.42108 -0.52686 -9.09048 -0.134272 -8.75988C0.258316 -8.38795 0.464941 -8.05735 0.464941 -7.76808C0.464941 -7.43748 0.278978 -7.18953 -0.0722844 -7.02423C-0.423547 -6.8176 -1.02276 -6.73495 -1.80794 -6.73495C-2.63444 -6.73495 -3.39895 -7.00356 -4.1428 -7.54079C-4.39075 -7.72675 -4.57671 -7.8094 -4.72135 -7.8094C-4.86599 -7.8094 -4.9693 -7.76808 -5.07261 -7.6441C-5.15526 -7.56145 -5.19659 -7.41681 -5.19659 -7.23085C-5.19659 -6.79694 -4.82466 -6.34236 -4.03949 -5.86713C-3.29564 -5.39189 -2.40715 -5.14394 -1.39469 -5.14394C-0.402885 -5.14394 0.464941 -5.41255 1.20879 -5.90845C1.97331 -6.44568 2.34523 -6.96224 2.34523 -7.52013C2.34523 -8.05735 2.15927 -8.55325 1.74602 -9.04915C1.37409 -9.50373 0.919517 -9.89632 0.444279 -10.2063C-0.816135 -10.9708 -1.45667 -11.5287 -1.45667 -11.8386C-1.45667 -12.2725 -1.10541 -12.6651 -0.402885 -13.0577C0.320303 -13.4503 0.836866 -13.6362 1.16747 -13.6362C1.49807 -13.6362 1.82867 -13.5123 2.13861 -13.2643C2.44854 -13.037 2.69649 -12.913 2.84113 -12.913C3.06842 -12.913 3.17173 -13.037 3.17173 -13.2643C3.17173 -13.6569 2.96511 -14.0908 2.55186 -14.628C2.13861 -15.1239 1.70469 -15.3925 1.22945 -15.3925ZM1.22945 -15.3925M3.60564 -4.834M10.0317 -15.3925C9.26718 -15.3925 8.3167 -15 7.1596 -14.2148C6.02316 -13.4089 5.44461 -12.6444 5.44461 -11.9212C5.44461 -11.508 5.65123 -11.0947 6.04382 -10.7022C6.43641 -10.3096 6.87032 -9.9583 7.36622 -9.68969C7.8208 -9.42108 8.27537 -9.09048 8.66796 -8.75988C9.06055 -8.38795 9.26718 -8.05735 9.26718 -7.76808C9.26718 -7.43748 9.08121 -7.18953 8.72995 -7.02423C8.37869 -6.8176 7.77947 -6.73495 6.9943 -6.73495C6.1678 -6.73495 5.40328 -7.00356 4.65943 -7.54079C4.41148 -7.72675 4.22552 -7.8094 4.08088 -7.8094C3.93624 -7.8094 3.83293 -7.76808 3.72962 -7.6441C3.64697 -7.56145 3.60564 -7.41681 3.60564 -7.23085C3.60564 -6.79694 3.97757 -6.34236 4.76275 -5.86713C5.5066 -5.39189 6.39508 -5.14394 7.40755 -5.14394C8.39935 -5.14394 9.26718 -5.41255 10.011 -5.90845C10.7755 -6.44568 11.1475 -6.96224 11.1475 -7.52013C11.1475 -8.05735 10.9615 -8.55325 10.5483 -9.04915C10.1763 -9.50373 9.72175 -9.89632 9.24651 -10.2063C7.9861 -10.9708 7.34556 -11.5287 7.34556 -11.8386C7.34556 -12.2725 7.69682 -12.6651 8.39935 -13.0577C9.12254 -13.4503 9.6391 -13.6362 9.9697 -13.6362C10.3003 -13.6362 10.6309 -13.5123 10.9408 -13.2643C11.2508 -13.037 11.4987 -12.913 11.6434 -12.913C11.8707 -12.913 11.974 -13.037 11.974 -13.2643C11.974 -13.6569 11.7673 -14.0908 11.3541 -14.628C10.9408 -15.1239 10.5069 -15.3925 10.0317 -15.3925ZM10.0317 -15.3925M12.8625 -4.834M15.8998 -19.1118C15.6726 -18.8639 15.5692 -18.5952 15.5692 -18.3266C15.5692 -18.058 15.7759 -17.7068 16.1685 -17.3142C16.5817 -16.9216 16.9536 -16.7149 17.2842 -16.7149C17.4289 -16.7149 17.5528 -16.7769 17.6768 -16.8802C17.8008 -16.9836 17.8628 -17.1075 17.8628 -17.2522C17.8628 -17.6241 17.6975 -18.0993 17.3875 -18.6366C17.0776 -19.2151 16.7883 -19.4837 16.5817 -19.4837C16.3338 -19.4837 16.1271 -19.3598 15.8998 -19.1118ZM15.8998 -19.1118M15.4659 -15.3925C15.2593 -15.3925 15.0527 -15.0619 14.8667 -14.3801C14.7634 -14.0288 14.6808 -13.6776 14.5981 -13.3056C14.5361 -12.975 14.4328 -12.4998 14.3088 -11.9419C14.1849 -11.3634 14.0609 -10.8468 13.9369 -10.3922C13.8336 -9.93764 13.6683 -9.33843 13.4823 -8.6359C13.2757 -7.89205 13.1104 -7.3135 13.0278 -6.90025C12.9038 -6.44568 12.8625 -6.13574 12.8625 -5.94978C12.8625 -5.74315 12.9244 -5.55719 13.0691 -5.41255C13.2137 -5.24725 13.379 -5.1646 13.565 -5.1646C13.9162 -5.1646 14.2262 -5.51586 14.4535 -6.19773C15.0527 -8.07802 15.5692 -9.75168 15.9618 -11.2807C16.3544 -12.7684 16.561 -13.6776 16.561 -13.9875C16.561 -14.2974 16.4371 -14.6074 16.2098 -14.9173C15.9825 -15.2272 15.7345 -15.3925 15.4659 -15.3925ZM15.4659 -15.3925M17.5322 -4.834M25.322 -15.2686C25.26 -15.1859 25.2186 -15.0413 25.1567 -14.814C24.8674 -13.7602 24.4335 -12.6238 23.8343 -11.4047C23.235 -10.1856 22.5738 -9.11114 21.8713 -8.18133C21.1275 -7.25151 20.5076 -6.79694 19.991 -6.79694C19.8051 -6.79694 19.6398 -6.85893 19.4951 -7.02423C19.3505 -7.1482 19.2885 -7.33416 19.2885 -7.56145C19.2885 -8.32597 19.4745 -9.23512 19.8464 -10.2476C20.2183 -11.2807 20.5902 -12.1899 20.9622 -12.9337C21.3341 -13.7189 21.5201 -14.1528 21.5201 -14.2768C21.5201 -14.566 21.4167 -14.8347 21.2514 -15.0413C21.0448 -15.2892 20.8382 -15.3925 20.5902 -15.3925C20.0737 -15.3925 19.4331 -14.4214 18.6893 -12.4378C17.9041 -10.4955 17.5322 -8.84253 17.5322 -7.54079C17.5322 -6.9829 17.7801 -6.44568 18.276 -5.92911C18.7719 -5.41255 19.3092 -5.14394 19.8464 -5.14394C20.4249 -5.14394 21.0241 -5.45388 21.706 -6.05309C22.3879 -6.6523 23.0078 -7.43748 23.5863 -8.36729C23.2764 -7.3135 23.1111 -6.59031 23.1111 -6.19773C23.1111 -5.80514 23.1731 -5.51586 23.297 -5.37123C23.421 -5.22659 23.5656 -5.14394 23.7516 -5.14394C24.0615 -5.14394 24.2888 -5.43321 24.4541 -6.01176C24.7847 -7.1482 25.26 -8.69789 25.8592 -10.6402C26.4584 -12.5824 26.7683 -13.6362 26.7683 -13.8222C26.7683 -14.1528 26.6237 -14.5041 26.3757 -14.8553C26.0865 -15.2066 25.8798 -15.3925 25.6732 -15.3925C25.5079 -15.3925 25.3839 -15.3512 25.322 -15.2686ZM25.322 -15.2686M27.5948 -4.834M41.1494 -15.3925C39.827 -15.3925 38.36 -13.8222 36.7277 -10.6608C36.893 -11.508 36.9756 -12.2312 36.9756 -12.8097C36.9756 -13.3883 36.7483 -13.9668 36.2731 -14.5454C35.8185 -15.1033 35.4259 -15.3925 35.0953 -15.3925C34.5374 -15.3925 34.0002 -15.1033 33.463 -14.5041C33.1737 -14.1735 32.8224 -13.7395 32.4299 -13.2023C32.0373 -12.6651 31.0661 -10.9501 29.5164 -8.05735C30.4256 -10.8468 30.8802 -12.8304 30.8802 -14.0495C30.8802 -14.3594 30.7355 -14.69 30.4463 -15C30.1363 -15.3099 29.847 -15.4752 29.5371 -15.4752C29.3511 -15.4752 29.2272 -15.2479 29.1858 -14.752C29.1445 -14.2974 29.0825 -13.5329 28.9999 -12.5205C28.8966 -11.4873 28.7726 -10.6815 28.5866 -10.0823C28.4213 -9.50373 28.2767 -9.00783 28.1321 -8.55325C28.0081 -8.14 27.9254 -7.8094 27.8428 -7.58211C27.8015 -7.35483 27.7395 -7.12754 27.6775 -6.90025C27.6155 -6.67296 27.5948 -6.46634 27.5948 -6.3217C27.5948 -6.1564 27.7395 -5.90845 28.0081 -5.61918C28.2767 -5.28858 28.504 -5.14394 28.6693 -5.14394C28.8552 -5.14394 29.1239 -5.39189 29.4958 -5.90845C29.6817 -6.17706 29.8264 -6.40435 29.9917 -6.63164C30.1157 -6.85893 30.3223 -7.16886 30.5909 -7.56145C30.8595 -7.9747 31.0868 -8.34663 31.2728 -8.6359C31.4794 -8.9665 31.7687 -9.42108 32.1819 -10.0823C32.5538 -10.7022 32.8638 -11.1774 33.0497 -11.4873C33.2357 -11.7973 33.463 -12.1072 33.7109 -12.4378C33.9589 -12.7891 34.1655 -13.0164 34.3308 -13.1403C34.4961 -13.285 34.6614 -13.347 34.8061 -13.347C34.9507 -13.347 35.0953 -13.2436 35.2193 -13.0577C35.3433 -12.8511 35.4053 -12.6031 35.4053 -12.3138C35.4053 -10.7641 35.054 -9.11114 34.3308 -7.3135C34.0829 -6.71429 33.9589 -6.30104 33.9589 -6.11508C33.9589 -5.92911 34.0622 -5.72249 34.2688 -5.4952C34.4755 -5.26791 34.6614 -5.1646 34.8267 -5.1646C35.0127 -5.1646 35.2193 -5.3299 35.4466 -5.70183C35.6739 -6.03243 35.9425 -6.52833 36.2731 -7.1482C36.5624 -7.76808 36.769 -8.14 36.8516 -8.26398C36.9136 -8.38795 36.9756 -8.51193 37.0583 -8.61524C37.0996 -8.71855 37.1616 -8.8012 37.2029 -8.88385C37.2442 -8.92518 37.5128 -9.40042 38.0294 -10.2476C38.546 -11.0947 39.0212 -11.8386 39.4551 -12.4378C39.9097 -13.037 40.3023 -13.347 40.6535 -13.347C40.9222 -13.347 41.0668 -12.913 41.0668 -12.0246C41.0668 -11.1567 40.8188 -9.97897 40.3643 -8.51193C39.8684 -7.02423 39.6411 -6.09441 39.6411 -5.70183C39.6411 -5.3299 39.7857 -5.14394 40.075 -5.14394C40.4882 -5.14394 40.9015 -5.61918 41.3354 -6.59031C41.7693 -7.56145 42.0999 -8.61524 42.3479 -9.77234C42.6165 -10.9294 42.7405 -11.8593 42.7405 -12.6031C42.7405 -13.3056 42.5752 -13.9668 42.2652 -14.5454C41.9346 -15.1033 41.5627 -15.3925 41.1494 -15.3925ZM41.1494 -15.3925"/>
     <path fill="#000" d="M-32.3988 20.0726M-22.8321 15.6508C-22.8321 15.0723 -23.08 14.4317 -23.5759 13.7085C-24.0925 13.006 -24.6504 12.3861 -25.2702 11.8489C-26.8819 10.4645 -27.6878 9.61737 -27.6878 9.30743C-27.6878 8.74954 -26.9026 8.15033 -25.3116 7.55111C-24.857 7.36515 -24.3404 7.22051 -23.7412 7.09654C-23.1627 6.9519 -22.7288 6.84859 -22.4395 6.76594C-22.1502 6.68329 -22.0056 6.57997 -22.0056 6.43534C-22.0056 6.14606 -22.1502 5.87745 -22.4188 5.60884C-22.6874 5.34022 -23.0387 5.21625 -23.4313 5.21625C-24.1958 5.21625 -25.1463 5.4642 -26.3034 5.9601C-27.4191 6.456 -28.2663 6.99322 -28.8035 7.59244C-28.9688 7.7784 -29.1135 8.04701 -29.2581 8.4396C-29.4027 8.83219 -29.4647 9.18345 -29.4647 9.53471C-29.4647 9.88598 -29.2168 10.3406 -28.7209 10.9398C-28.225 11.539 -27.6671 12.0969 -27.0885 12.5928C-26.4687 13.13 -25.9314 13.6672 -25.4355 14.2458C-24.9396 14.8243 -24.6917 15.2996 -24.6917 15.6715C-24.6917 16.25 -25.0636 16.7873 -25.8075 17.2832C-26.572 17.7791 -27.4191 18.027 -28.3903 18.027C-28.8655 18.027 -29.2994 17.9237 -29.7333 17.7171C-30.1466 17.5104 -30.4772 17.2832 -30.7251 17.0559C-31.3657 16.3947 -31.7996 16.0641 -32.0269 16.0641C-32.2748 16.0641 -32.3988 16.2707 -32.3988 16.6839C-32.3988 17.2832 -31.9649 17.9237 -31.1177 18.6262C-30.2706 19.2874 -29.1755 19.6387 -27.8737 19.6387C-26.5513 19.6387 -25.3736 19.2461 -24.3611 18.5022C-23.3486 17.7171 -22.8321 16.7873 -22.8321 15.6508ZM-22.8321 15.6508M-20.7865 20.0726M-14.6497 13.0267C-14.6497 14.0598 -15.001 15.1549 -15.7035 16.312C-16.3854 17.4898 -17.2325 18.1716 -18.2243 18.3576C-18.7409 18.089 -19.0095 17.4278 -19.0095 16.374C-19.0095 15.3202 -18.6789 14.1838 -17.9764 12.9647C-17.3152 11.7663 -16.4887 11.0431 -15.5382 10.7745C-15.2489 10.9604 -15.0216 11.2704 -14.877 11.6836C-14.7324 12.1175 -14.6497 12.5514 -14.6497 13.0267ZM-14.6497 13.0267M-18.183 10.5678C-18.9682 11.2497 -19.588 12.1382 -20.084 13.2126C-20.5385 14.2871 -20.7865 15.3202 -20.7865 16.312C-20.7865 17.3245 -20.5592 18.151 -20.084 18.7915C-19.6087 19.4321 -19.0302 19.7627 -18.3276 19.7627C-17.3772 19.7627 -16.4887 19.4114 -15.6208 18.7502C-14.7943 18.0477 -14.1125 17.2005 -13.6372 16.1467C-13.162 15.1136 -12.9141 14.1011 -12.9141 13.0887C-12.9141 12.0969 -13.1827 11.2497 -13.7406 10.5678C-14.2984 9.86532 -14.9803 9.51405 -15.7861 9.51405C-16.6126 9.51405 -17.4185 9.86532 -18.183 10.5678ZM-18.183 10.5678M-11.4883 20.0726M-10.2899 12.0349C-10.2899 13.6672 -10.5792 15.3615 -11.1371 17.0972C-11.3644 17.8617 -11.4883 18.3576 -11.4883 18.6262C-11.4883 18.8742 -11.4264 19.1221 -11.2611 19.4114C-11.1371 19.6594 -10.9305 19.804 -10.7032 19.804C-10.4139 19.804 -10.1659 19.5354 -9.93865 18.9775C-9.81468 18.6675 -9.71136 18.3576 -9.60805 18.0477C-9.50474 17.7377 -9.3601 17.2832 -9.1948 16.7253C-8.98818 16.1674 -8.74023 15.4649 -8.43029 14.6384C-8.12035 13.8119 -7.7071 13.068 -7.2112 12.4275C-6.69464 11.7663 -6.07476 11.2704 -5.35157 10.9604C-5.02097 10.7745 -4.77302 10.6298 -4.62838 10.4852C-4.48375 10.3406 -4.4011 10.1959 -4.4011 10.0306C-4.4011 9.70002 -4.7317 9.53471 -5.41356 9.53471C-6.48801 9.53471 -7.62445 10.4439 -8.82288 12.2622C-8.80221 12.0349 -8.78155 11.6836 -8.78155 11.229C-8.78155 10.7538 -8.90553 10.3612 -9.15348 10.0306C-9.38076 9.67935 -9.62871 9.51405 -9.89733 9.51405C-10.2073 9.51405 -10.3519 9.84465 -10.3519 10.4852ZM-10.3519 10.4852M-4.87633 20.0726M-3.80188 19.7627C-3.65725 19.7627 -3.45062 19.3081 -3.14068 18.3783L-3.12002 18.3576C-2.21087 19.3081 -1.28106 19.7833 -0.351242 19.7833C0.578571 19.7833 1.48772 19.3701 2.33489 18.5849C3.18205 17.7584 3.86391 16.8079 4.38047 15.6715C4.87638 14.535 5.12433 13.5432 5.12433 12.6754C5.12433 11.7869 4.89704 11.0431 4.46312 10.4025C4.00855 9.762 3.45066 9.45206 2.81012 9.45206C1.46706 9.45206 -0.0206421 10.5678 -1.65298 12.7787C-0.909131 9.63803 -0.537205 7.22051 -0.537205 5.52619C-0.537205 5.1336 -0.702505 4.74101 -1.01244 4.32776C-1.32238 3.93517 -1.59099 3.72855 -1.81828 3.72855C-2.12822 3.72855 -2.27286 3.93517 -2.27286 4.34842C-2.27286 6.14606 -2.47948 8.109 -2.93406 10.2786C-3.34731 12.4275 -3.80188 14.2664 -4.21513 15.7955C-4.66971 17.3245 -4.87633 18.213 -4.87633 18.4816C-4.87633 18.7502 -4.75236 19.0188 -4.48375 19.3287C-4.21513 19.618 -3.98785 19.7627 -3.80188 19.7627ZM-3.80188 19.7627M-0.516543 18.1716C-1.23973 18.1716 -1.92159 17.7584 -2.56213 16.9319C-1.83894 15.3822 -0.991781 14.0598 2.03856e-05 12.944C0.971159 11.8283 1.85965 11.2704 2.66549 11.2704C3.16139 11.2704 3.40934 11.6836 3.40934 12.4895C3.40934 13.8325 2.97542 15.1136 2.1076 16.3533C1.26043 17.5518 0.371946 18.1716 -0.516543 18.1716ZM-0.516543 18.1716M5.66155 20.0726M13.3687 10.4439C12.8521 9.82399 12.2736 9.51405 11.6537 9.51405C10.8065 9.51405 9.89737 9.98929 8.92623 10.9398C7.95509 11.8902 7.16992 12.9647 6.5707 14.2044C5.97149 15.4029 5.66155 16.436 5.66155 17.2625C5.66155 17.841 5.97149 18.3989 6.59136 18.9568C7.19058 19.4941 7.81045 19.7627 8.45099 19.7627C9.50478 19.7627 10.6412 18.9775 11.8603 17.4278C11.881 18.1097 11.9843 18.6675 12.1289 19.1221C12.2942 19.5354 12.5008 19.7627 12.7488 19.7627C12.9348 19.7627 13.0587 19.5974 13.1207 19.2461C13.162 19.0808 13.2034 18.9155 13.224 18.7502C13.2447 18.5642 13.286 18.3369 13.3273 18.0477C13.348 17.7584 13.4513 17.1385 13.6166 16.2087C13.8026 15.2789 13.8852 14.6177 13.8852 14.2251C13.8852 14.0805 13.8026 13.8945 13.6373 13.6879C13.9885 13.1713 14.1538 12.6548 14.1538 12.1382C14.1538 11.6423 13.8852 11.0844 13.3687 10.4439ZM13.3687 10.4439M12.6042 13.1507L12.6042 13.1713C12.4182 13.2126 12.2942 13.3366 12.2529 13.5432C11.943 14.8037 11.3644 15.8574 10.5586 16.7253C9.75273 17.6138 9.00888 18.0477 8.36834 18.0477C8.09973 18.0477 7.87244 17.965 7.68648 17.841C7.50052 17.6757 7.3972 17.4898 7.3972 17.2625C7.3972 16.7046 7.64515 15.9401 8.14105 14.969C8.63695 13.9978 9.23617 13.13 9.95936 12.3861C10.6825 11.601 11.3024 11.229 11.8396 11.229C12.3562 11.229 12.6042 11.8696 12.6042 13.1507ZM12.6042 13.1507M15.7862 20.0726M18.1624 17.6964C18.1624 17.3865 18.3897 16.5393 18.8236 15.1549C19.2575 13.7499 19.6294 12.5101 19.9187 11.415C21.3444 11.1257 22.2949 10.9191 22.7288 10.7745C23.1834 10.6298 23.4107 10.4645 23.4107 10.2579C23.4107 9.90664 22.9974 9.72068 22.1709 9.72068C21.6957 9.72068 21.0758 9.762 20.2906 9.82399C20.5179 8.89418 20.6419 8.23298 20.6419 7.86105C20.6419 7.48913 20.4766 7.15853 20.1253 6.84859C19.7741 6.55931 19.4848 6.41467 19.2575 6.41467C18.9889 6.41467 18.8442 6.6213 18.8442 7.03455C18.8442 7.92304 18.7203 8.9355 18.4723 10.0719C16.6747 10.3819 15.7862 10.6918 15.7862 11.0224C15.7862 11.229 15.8895 11.4357 16.1168 11.6836C16.3234 11.8902 16.53 12.0142 16.7573 12.0142C16.9846 12.0142 17.4185 11.9316 18.0591 11.7869C17.8731 12.4275 17.6458 13.254 17.3152 14.2458C17.0259 15.2169 16.778 16.0227 16.6127 16.6013C16.4474 17.2212 16.3647 17.6964 16.3647 18.089C16.3647 18.4816 16.592 18.8535 17.0259 19.2048C17.4599 19.5767 18.0177 19.7627 18.6789 19.7627C19.3608 19.7627 20.1047 19.4941 20.9105 18.9775C21.737 18.4609 22.1502 17.9857 22.1502 17.5931C22.1502 17.3245 22.0263 17.2005 21.7783 17.2005C21.6957 17.2005 21.2824 17.3451 20.5386 17.6344C19.7741 17.9444 19.1335 18.089 18.617 18.089C18.307 18.089 18.1624 17.965 18.1624 17.6964ZM18.1624 17.6964M23.5966 20.0726M30.8905 14.7417C31.6963 14.2664 32.0889 13.6672 32.0889 12.9234C32.0889 12.2002 31.7583 11.4357 31.0971 10.6712C30.4153 9.90664 29.6714 9.51405 28.8656 9.51405C28.0597 9.51405 27.2332 9.88598 26.4067 10.6092C25.5802 11.3324 24.8984 12.2415 24.3818 13.2953C23.8652 14.3697 23.5966 15.4029 23.5966 16.374C23.5966 17.3451 23.9272 18.1716 24.6091 18.7915C25.2909 19.4527 26.1588 19.7627 27.2332 19.7627C28.0391 19.7627 28.8449 19.5354 29.6921 19.1221C30.5392 18.6675 30.9525 18.275 30.9525 17.903C30.9525 17.6344 30.7665 17.4898 30.4153 17.4898C30.3533 17.4898 29.94 17.6138 29.2375 17.841C28.4936 18.089 27.7911 18.213 27.1299 18.213C26.4274 18.213 25.9521 18.089 25.6422 17.8204C25.3529 17.5518 25.2083 17.1798 25.2083 16.7253C25.2083 16.2294 25.3116 15.6921 25.4976 15.0929C26.3034 15.3202 27.2126 15.4235 28.2044 15.4235C29.2168 15.4235 30.1053 15.1962 30.8905 14.7417ZM30.8905 14.7417M28.9689 11.1464C29.2995 11.1464 29.6301 11.3324 29.9813 11.7249C30.3119 12.1175 30.4772 12.4895 30.4772 12.8614C30.4772 13.2333 30.2086 13.5432 29.6921 13.7499C29.1755 13.9978 28.5556 14.1011 27.8531 14.1011C27.1506 14.1011 26.5307 14.0391 25.9728 13.9152C26.3654 13.13 26.82 12.4688 27.3779 11.9316C27.9357 11.415 28.4523 11.1464 28.9689 11.1464ZM28.9689 11.1464"/>
    </g>
   </g>
   <g>
    <path stroke="#f00" d="M333.056 -196.92L365.344 -196.92L378.768 -202.48L401.6 -225.312L407.16 -238.736L407.16 -271.024L401.6 -284.448L378.768 -307.28L365.344 -312.84L333.056 -312.84L319.632 -307.28L296.8 -284.448L291.24 -271.024L291.24 -238.736L296.8 -225.312L319.632 -202.48L333.056 -196.92"/>
   </g>
   <g>
    <path fill="#000" d="M333.056 -196.92L365.344 -196.92L378.768 -202.48L401.6 -225.312L407.16 -238.736L407.16 -271.024L401.6 -284.448L378.768 -307.28L365.344 -312.84L333.056 -312.84L319.632 -307.28L296.8 -284.448L291.24 -271.024L291.24 -238.736L296.8 -225.312L319.632 -202.48L333.056 -196.92M349.2 -208.512L349.2 -208.512A46.368 46.368 0 0 1 349.2 -301.248A46.368 46.368 0 0 1 349.2 -208.512"/>
   </g>
   <g transform="matrix(1.000000,0.000000,0.000000,1.000000,475.920000,-254.880000)"/>
   <g>
    <path stroke="#f00" d="M459.776 -196.92L492.064 -196.92L505.488 -202.48L528.32 -225.312L533.88 -238.736L533.88 -271.024L528.32 -284.448L505.488 -307.28L492.064 -312.84L459.776 -312.84L446.352 -307.28L423.52 -284.448L417.96 -271.024L417.96 -238.736L423.52 -225.312L446.352 -202.48L459.776 -196.92"/>
   </g>
   <g>
    <path fill="#000" d="M459.776 -196.92L492.064 -196.92L505.488 -202.48L528.32 -225.312L533.88 -238.736L533.88 -271.024L528.32 -284.448L505.488 -307.28L492.064 -312.84L459.776 -312.84L446.352 -307.28L423.52 -284.448L417.96 -271.024L417.96 -238.736L423.52 -225.312L446.352 -202.48L459.776 -196.92M475.92 -208.512L475.92 -208.512A46.368 46.368 0 0 1 475.92 -301.248A46.368 46.368 0 0 1 475.92 -208.512"/>
   </g>
   <g transform="matrix(1.000000,0.000000,0.000000,1.000000,602.640000,-254.880000)"/>
   <g>
    <path stroke="#f00" d="M586.496 -196.92L618.784 -196.92L632.208 -202.48L655.04 -225.312L660.6 -238.736L660.6 -271.024L655.04 -284.448L632.208 -307.28L618.784 -312.84L586.496 -312.84L573.072 -307.28L550.24 -284.448L544.68 -271.024L544.68 -238.736L550.24 -225.312L573.072 -202.48L586.496 -196.92"/>
   </g>
   <g>
    <path fill="#000" d="M586.496 -196.92L618.784 -196.92L632.208 -202.48L655.04 -225.312L660.6 -238.736L660.6 -271.024L655.04 -284.448L632.208 -307.28L618.784 -312.84L586.496 -312.84L573.072 -307.28L550.24 -284.448L544.68 -271.024L544.68 -238.736L550.24 -225.312L573.072 -202.48L586.496 -196.92M602.64 -208.512L602.64 -208.512A46.368 46.368 0 0 1 602.64 -301.248A46.368 46.368 0 0 1 602.64 -208.512"/>
   </g>
   <g transform="matrix(1.000000,0.000000,0.000000,1.000000,729.360000,-254.880000)"/>
   <g>
    <path stroke="#f00" d="M713.216 -196.92L745.504 -196.92L758.928 -202.48L781.76 -225.312L787.32 -238.736L787.32 -271.024L781.76 -284.448L758.928 -307.28L745.504 -312.84L713.216 -312.84L699.792 -307.28L676.96 -284.448L671.4 -271.024L671.4 -238.736L676.96 -225.312L699.792 -202.48L713.216 -196.92"/>
   </g>
   <g>
    <path fill="#000" d="M713.216 -196.92L745.504 -196.92L758.928 -202.48L781.76 -225.312L787.32 -238.736L787.32 -271.024L781.76 -284.448L758.928 -307.28L745.504 -312.84L713.216 -312.84L699.792 -307.28L676.96 -284.448L671.4 -271.024L671.4 -238.736L676.96 -225.312L699.792 -202.48L713.216 -196.92M729.36 -208.512L729.36 -208.512A46.368 46.368 0 0 1 729.36 -301.248A46.368 46.368 0 0 1 729.36 -208.512"/>
   </g>
   <g transform="matrix(1.000000,0.000000,0.000000,1.000000,856.080000,-254.880000)"/>
   <g>
    <path stroke="#f00" d="M839.936 -196.92L872.224 -196.92L885.648 -202.48L908.48 -225.312L914.04 -238.736L914.04 -271.024L908.48 -284.448L885.648 -307.28L872.224 -312.84L839.936 -312.84L826.512 -307.28L803.68 -284.448L798.12 -271.024L798.12 -238.736L803.68 -225.312L826.512 -202.48L839.936 -196.92"/>
   </g>
   <g>
    <path fill="#000" d="M839.936 -196.92L872.224 -196.92L885.648 -202.48L908.48 -225.312L914.04 -238.736L914.04 -271.024L908.48 -284.448L885.648 -307.28L872.224 -312.84L839.936 -312.84L826.512 -307.28L803.68 -284.448L798.12 -271.024L798.12 -238.736L803.68 -225.312L826.512 -202.48L839.936 -196.92M856.08 -208.512L856.08 -208.512A46.368 46.368 0 0 1 856.08 -301.248A46.368 46.368 0 0 1 856.08 -208.512"/>
   </g>
   <g transform="matrix(1.000000,0.000000,0.000000,1.000000,982.800000,-254.880000)"/>
   <g>
    <path stroke="#f00" d="M966.656 -196.92L998.944 -196.92L1012.37 -202.48L1035.2 -225.312L1040.76 -238.736L1040.76 -271.024L1035.2 -284.448L1012.37 -307.28L998.944 -312.84L966.656 -312.84L953.232 -307.28L930.4 -284.448L924.84 -271.024L924.84 -238.736L930.4 -225.312L953.232 -202.48L966.656 -196.92"/>
   </g>
   <g>
    <path fill="#000" d="M966.656 -196.92L998.944 -196.92L1012.37 -202.48L1035.2 -225.312L1040.76 -238.736L1040.76 -271.024L1035.2 -284.448L1012.37 -307.28L998.944 -312.84L966.656 -312.84L953.232 -307.28L930.4 -284.448L924.84 -271.024L924.84 -238.736L930.4 -225.312L953.232 -202.48L966.656 -196.92M982.8 -208.512L982.8 -208.512A46.368 46.368 0 0 1 982.8 -301.248A46.368 46.368 0 0 1 982.8 -208.512"/>
   </g>
   <g transform="matrix(1.000000,0.000000,0.000000,1.000000,1109.520000,-254.880000)"/>
   <g>
    <path stroke="#f00" d="M1093.38 -196.92L1125.66 -196.92L1139.09 -202.48L1161.92 -225.312L1167.48 -238.736L1167.48 -271.024L1161.92 -284.448L1139.09 -307.28L1125.66 -312.84L1093.38 -312.84L1079.95 -307.28L1057.12 -284.448L1051.56 -271.024L1051.56 -238.736L1057.12 -225.312L1079.95 -202.48L1093.38 -196.92"/>
   </g>
   <g>
    <path fill="#000" d="M1093.38 -196.92L1125.66 -196.92L1139.09 -202.48L1161.92 -225.312L1167.48 -238.736L1167.48 -271.024L1161.92 -284.448L1139.09 -307.28L1125.66 -312.84L1093.38 -312.84L1079.95 -307.28L1057.12 -284.448L1051.56 -271.024L1051.56 -238.736L1057.12 -225.312L1079.95 -202.48L1093.38 -196.92M1109.52 -208.512L1109.52 -208.512A46.368 46.368 0 0 1 1109.52 -301.248A46.368 46.368 0 0 1 1109.52 -208.512"/>
   </g>
   <g transform="matrix(1.000000,0.000000,0.000000,1.000000,1236.240000,-254.880000)"/>
   <g>
    <path stroke="#f00" d="M1220.1 -196.92L1252.38 -196.92L1265.81 -202.48L1288.64 -225.312L1294.2 -238.736L1294.2 -271.024L1288.64 -284.448L1265.81 -307.28L1252.38 -312.84L1220.1 -312.84L1206.67 -307.28L1183.84 -284.448L1178.28 -271.024L1178.28 -238.736L1183.84 -225.312L1206.67 -202.48L1220.1 -196.92"/>
   </g>
   <g>
    <path fill="#000" d="M1220.1 -196.92L1252.38 -196.92L1265.81 -202.48L1288.64 -225.312L1294.2 -238.736L1294.2 -271.024L1288.64 -284.448L1265.81 -307.28L1252.38 -312.84L1220.1 -312.84L1206.67 -307.28L1183.84 -284.448L1178.28 -271.024L1178.28 -238.736L1183.84 -225.312L1206.67 -202.48L1220.1 -196.92M1236.24 -208.512L1236.24 -208.512A46.368 46.368 0 0 1 1236.24 -301.248A46.368 46.368 0 0 1 1236.24 -208.512"/>
   </g>
   <g transform="matrix(1.000000,0.000000,0.000000,1.000000,63.360000,-381.600000)"/>
   <g>
    <path stroke="#f00" d="M47.2157 -323.64L79.5043 -323.64L92.9282 -329.2L115.76 -352.032L121.32 -365.456L121.32 -397.744L115.76 -411.168L92.9282 -434L79.5043 -439.56L47.2157 -439.56L33.7918 -434L10.9603 -411.168L5.4 -397.744L5.4 -365.456L10.9603 -352.032L33.7918 -329.2L47.2157 -323.64"/>
   </g>
   <g>
    <path fill="#000" d="M47.2157 -323.64L79.5043 -323.64L92.9282 -329.2L115.76 -352.032L121.32 -365.456L121.32 -397.744L115.76 -411.168L92.9282 -434L79.5043 -439.56L47.2157 -439.56L33.7918 -434L10.9603 -411.168L5.4 -397.744L5.4 -365.456L10.9603 -352.032L33.7918 -329.2L47.2157 -323.64M63.36 -335.232L63.36 -335.232A46.368 46.368 0 0 1 63.36 -427.968A46.368 46.368 0 0 1 63.36 -335.232"/>
   </g>
   <g transform="matrix(1.000000,0.000000,0.000000,1.000000,190.080000,-381.600000)"/>
   <g>
    <path stroke="#f00" d="M173.936 -323.64L206.224 -323.64L219.648 -329.2L242.48 -352.032L248.04 -365.456L248.04 -397.744L242.48 -411.168L219.648 -434L206.224 -439.56L173.936 -439.56L160.512 -434L137.68 -411.168L132.12 -397.744L132.12 -365.456L137.68 -352.032L160.512 -329.2L173.936 -323.64"/>
   </g>
   <g>
    <path fill="#000" d="M173.936 -323.64L206.224 -323.64L219.648 -329.2L242.48 -352.032L248.04 -365.456L248.04 -397.744L242.48 -411.168L219.648 -434L206.224 -439.56L173.936 -439.56L160.512 -434L137.68 -411.168L132.12 -397.744L132.12 -365.456L137.68 -352.032L160.512 -329.2L173.936 -323.64M190.08 -335.232L190.08 -335.232A46.368 46.368 0 0 1 190.08 -427.968A46.368 46.368 0 0 1 190.08 -335.232"/>
   </g>
   <g transform="matrix(1.000000,0.000000,0.000000,1.000000,316.800000,-381.600000)"/>
   <g>
    <path stroke="#f00" d="M300.656 -323.64L332.944 -323.64L346.368 -329.2L369.2 -352.032L374.76 -365.456L374.76 -397.744L369.2 -411.168L346.368 -434L332.944 -439.56L300.656 -439.56L287.232 -434L264.4 -411.168L258.84 -397.744L258.84 -365.456L264.4 -352.032L287.232 -329.2L300.656 -323.64"/>
   </g>
   <g>
    <path fill="#000" d="M300.656 -323.64L332.944 -323.64L346.368 -329.2L369.2 -352.032L374.76 -365.456L374.76 -397.744L369.2 -411.168L346.368 -434L332.944 -439.56L300.656 -439.56L287.232 -434L264.4 -411.168L258.84 -397.744L258.84 -365.456L264.4 -352.032L287.232 -329.2L300.656 -323.64M316.8 -335.232L316.8 -335.232A46.368 46.368 0 0 1 316.8 -427.968A46.368 46.368 0 0 1 316.8 -335.232"/>
   </g>
   <g transform="matrix(1.000000,0.000000,0.000000,1.000000,443.520000,-381.600000)"/>
   <g>
    <path stroke="#f00" d="M427.376 -323.64L459.664 -323.64L473.088 -329.2L495.92 -352.032L501.48 -365.456L501.48 -397.744L495.92 -411.168L473.088 -434L459.664 -439.56L427.376 -439.56L413.952 -434L391.12 -411.168L385.56 -397.744L385.56 -365.456L391.12 -352.032L413.952 -329.2L427.376 -323.64"/>
   </g>
   <g>
    <path fill="#000" d="M427.376 -323.64L459.664 -323.64L473.088 -329.2L495.92 -352.032L501.48 -365.456L501.48 -397.744L495.92 -411.168L473.088 -434L459.664 -439.56L427.376 -439.56L413.952 -434L391.12 -411.168L385.56 -397.744L385.56 -365.456L391.12 -352.032L413.952 -329.2L427.376 -323.64M443.52 -335.232L443.52 -335.232A46.368 46.368 0 0 1 443.52 -427.968A46.368 46.368 0 0 1 443.52 -335.232"/>
   </g>
   <g transform="matrix(1.000000,0.000000,0.000000,1.000000,570.240000,-381.600000)"/>
   <g>
    <path stroke="#f00" d="M554.096 -323.64L586.384 -323.64L599.808 -329.2L622.64 -352.032L628.2 -365.456L628.2 -397.744L622.64 -411.168L599.808 -434L586.384 -439.56L554.096 -439.56L540.672 -434L517.84 -411.168L512.28 -397.744L512.28 -365.456L517.84 -352.032L540.672 -329.2L554.096 -323.64"/>
   </g>
   <g>
    <path fill="#000" d="M554.096 -323.64L586.384 -323.64L599.808 -329.2L622.64 -352.032L628.2 -365.456L628.2 -397.744L622.64 -411.168L599.808 -434L586.384 -439.56L554.096 -439.56L540.672 -434L517.84 -411.168L512.28 -397.744L512.28 -365.456L517.84 -352.032L540.672 -329.2L554.096 -323.64M570.24 -335.232L570.24 -335.232A46.368 46.368 0 0 1 570.24 -427.968A46.368 46.368 0 0 1 570.24 -335.232"/>
   </g>
   <g transform="matrix(1.000000,0.000000,0.000000,1.000000,696.960000,-381.600000)"/>
   <g>
    <path stroke="#f00" d="M680.816 -323.64L713.104 -323.64L726.528 -329.2L749.36 -352.032L754.92 -365.456L754.92 -397.744L749.36 -411.168L726.528 -434L713.104 -439.56L680.816 -439.56L667.392 -434L644.56 -411.168L639 -397.744L639 -365.456L644.56 -352.032L667.392 -329.2L680.816 -323.64"/>
   </g>
   <g>
    <path fill="#000" d="M680.816 -323.64L713.104 -323.64L726.528 -329.2L749.36 -352.032L754.92 -365.456L754.92 -397.744L749.36 -411.168L726.528 -434L713.104 -439.56L680.816 -439.56L667.392 -434L644.56 -411.168L639 -397.744L639 -365.456L644.56 -352.032L667.392 -329.2L680.816 -323.64M696.96 -335.232L696.96 -335.232A46.368 46.368 0 0 1 696.96 -427.968A46.368 46.368 0 0 1 696.96 -335.232"/>
   </g>
   <g transform="matrix(1.000000,0.000000,0.000000,1.000000,823.680000,-381.600000)"/>
   <g>
    <path stroke="#f00" d="M807.536 -323.64L839.824 -323.64L853.248 -329.2L876.08 -352.032L881.64 -365.456L881.64 -397.744L876.08 -411.168L853.248 -434L839.824 -439.56L807.536 -439.56L794.112 -434L771.28 -411.168L765.72 -397.744L765.72 -365.456L771.28 -352.032L794.112 -329.2L807.536 -323.64"/>
   </g>
   <g>
    <path fill="#000" d="M807.536 -323.64L839.824 -323.64L853.248 -329.2L876.08 -352.032L881.64 -365.456L881.64 -397.744L876.08 -411.168L853.248 -434L839.824 -439.56L807.536 -439.56L794.112 -434L771.28 -411.168L765.72 -397.744L765.72 -365.456L771.28 -352.032L794.112 -329.2L807.536 -323.64M823.68 -335.232L823.68 -335.232A46.368 46.368 0 0 1 823.68 -427.968A46.368 46.368 0 0 1 823.68 -335.232"/>
   </g>
   <g transform="matrix(1.000000,0.000000,0.000000,1.000000,950.400000,-381.600000)"/>
   <g>
    <path stroke="#f00" d="M934.256 -323.64L966.544 -323.64L979.968 -329.2L1002.8 -352.032L1008.36 -365.456L1008.36 -397.744L1002.8 -411.168L979.968 -434L966.544 -439.56L934.256 -439.56L920.832 -434L898 -411.168L892.44 -397.744L892.44 -365.456L898 -352.032L920.832 -329.2L934.256 -323.64"/>
   </g>
   <g>
    <path fill="#000" d="M934.256 -323.64L966.544 -323.64L979.968 -329.2L1002.8 -352.032L1008.36 -365.456L1008.36 -397.744L1002.8 -411.168L979.968 -434L966.544 -439.56L934.256 -439.56L920.832 -434L898 -411.168L892.44 -397.744L892.44 -365.456L898 -352.032L920.832 -329.2L934.256 -323.64M950.4 -335.232L950.4 -335.232A46.368 46.368 0 0 1 950.4 -427.968A46.368 46.368 0 0 1 950.4 -335.232"/>
   </g>
   <g transform="matrix(1.000000,0.000000,0.000000,1.000000,1077.120000,-381.600000)"/>
   <g>
    <path stroke="#f00" d="M1060.98 -323.64L1093.26 -323.64L1106.69 -329.2L1129.52 -352.032L1135.08 -365.456L1135.08 -397.744L1129.52 -411.168L1106.69 -434L1093.26 -439.56L1060.98 -439.56L1047.55 -434L1024.72 -411.168L1019.16 -397.744L1019.16 -365.456L1024.72 -352.032L1047.55 -329.2L1060.98 -323.64"/>
   </g>
   <g>
    <path fill="#000" d="M1060.98 -323.64L1093.26 -323.64L1106.69 -329.2L1129.52 -352.032L1135.08 -365.456L1135.08 -397.744L1129.52 -411.168L1106.69 -434L1093.26 -439.56L1060.98 -439.56L1047.55 -434L1024.72 -411.168L1019.16 -397.744L1019.16 -365.456L1024.72 -352.032L1047.55 -329.2L1060.98 -323.64M1077.12 -335.232L1077.12 -335.232A46.368 46.368 0 0 1 1077.12 -427.968A46.368 46.368 0 0 1 1077.12 -335.232"/>
   </g>
   <g transform="matrix(1.000000,0.000000,0.000000,1.000000,1203.840000,-381.600000)"/>
   <g>
    <path stroke="#f00" d="M1187.7 -323.64L1219.98 -323.64L1233.41 -329.2L1256.24 -352.032L1261.8 -365.456L1261.8 -397.744L1256.24 -411.168L1233.41 -434L1219.98 -439.56L1187.7 -439.56L1174.27 -434L1151.44 -411.168L1145.88 -397.744L1145.88 -365.456L1151.44 -352.032L1174.27 -329.2L1187.7 -323.64"/>
   </g>
   <g>
    <path fill="#000" d="M1187.7 -323.64L1219.98 -323.64L1233.41 -329.2L1256.24 -352.032L1261.8 -365.456L1261.8 -397.744L1256.24 -411.168L1233.41 -434L1219.98 -439.56L1187.7 -439.56L1174.27 -434L1151.44 -411.168L1145.88 -397.744L1145.88 -365.456L1151.44 -352.032L1174.27 -329.2L1187.7 -323.64M1203.84 -335.232L1203.84 -335.232A46.368 46.368 0 0 1 1203.84 -427.968A46.368 46.368 0 0 1 1203.84 -335.232"/>
   </g>
   <g transform="matrix(1.000000,0.000000,0.000000,1.000000,1330.560000,-381.600000)"/>
   <g>
    <path stroke="#f00" d="M1314.42 -323.64L1346.7 -323.64L1360.13 -329.2L1382.96 -352.032L1388.52 -365.456L1388.52 -397.744L1382.96 -411.168L1360.13 -434L1346.7 -439.56L1314.42 -439.56L1300.99 -434L1278.16 -411.168L1272.6 -397.744L1272.6 -365.456L1278.16 -352.032L1300.99 -329.2L1314.42 -323.64"/>
   </g>
   <g>
    <path fill="#000" d="M1314.42 -323.64L1346.7 -323.64L1360.13 -329.2L1382.96 -352.032L1388.52 -365.456L1388.52 -397.744L1382.96 -411.168L1360.13 -434L1346.7 -439.56L1314.42 -439.56L1300.99 -434L1278.16 -411.168L1272.6 -397.744L1272.6 -365.456L1278.16 -352.032L1300.99 -329.2L1314.42 -323.64M1330.56 -335.232L1330.56 -335.232A46.368 46.368 0 0 1 1330.56 -427.968A46.368 46.368 0 0 1 1330.56 -335.232"/>
   </g>
   <g transform="matrix(1.000000,0.000000,0.000000,1.000000,63.360000,-508.320000)"/>
   <g>
    <path stroke="#f00" d="M47.2157 -450.36L79.5043 -450.36L92.9282 -455.92L115.76 -478.752L121.32 -492.176L121.32 -524.464L115.76 -537.888L92.9282 -560.72L79.5043 -566.28L47.2157 -566.28L33.7918 -560.72L10.9603 -537.888L5.4 -524.464L5.4 -492.176L10.9603 -478.752L33.7918 -455.92L47.2157 -450.36"/>
   </g>
   <g>
    <path fill="#000" d="M47.2157 -450.36L79.5043 -450.36L92.9282 -455.92L115.76 -478.752L121.32 -492.176L121.32 -524.464L115.76 -537.888L92.9282 -560.72L79.5043 -566.28L47.2157 -566.28L33.7918 -560.72L10.9603 -537.888L5.4 -524.464L5.4 -492.176L10.9603 -478.752L33.7918 -455.92L47.2157 -450.36M63.36 -461.952L63.36 -461.952A46.368 46.368 0 0 1 63.36 -554.688A46.368 46.368 0 0 1 63.36 -461.952"/>
   </g>
   <g transform="matrix(1.000000,0.000000,0.000000,1.000000,190.080000,-508.320000)"/>
   <g>
    <path stroke="#f00" d="M173.936 -450.36L206.224 -450.36L219.648 -455.92L242.48 -478.752L248.04 -492.176L248.04 -524.464L242.48 -537.888L219.648 -560.72L206.224 -566.28L173.936 -566.28L160.512 -560.72L137.68 -537.888L132.12 -524.464L132.12 -492.176L137.68 -478.752L160.512 -455.92L173.936 -450.36"/>
   </g>
   <g>
    <path fill="#000" d="M173.936 -450.36L206.224 -450.36L219.648 -455.92L242.48 -478.752L248.04 -492.176L248.04 -524.464L242.48 -537.888L219.648 -560.72L206.224 -566.28L173.936 -566.28L160.512 -560.72L137.68 -537.888L132.12 -524.464L132.12 -492.176L137.68 -478.752L160.512 -455.92L173.936 -450.36M190.08 -461.952L190.08 -461.952A46.368 46.368 0 0 1 190.08 -554.688A46.368 46.368 0 0 1 190.08 -461.952"/>
   </g>
   <g transform="matrix(1.000000,0.000000,0.000000,1.000000,316.800000,-508.320000)"/>
   <g>
    <path stroke="#f00" d="M300.656 -450.36L332.944 -450.36L346.368 -455.92L369.2 -478.752L374.76 -492.176L374.76 -524.464L369.2 -537.888L346.368 -560.72L332.944 -566.28L300.656 -566.28L287.232 -560.72L264.4 -537.888L258.84 -524.464L258.84 -492.176L264.4 -478.752L287.232 -455.92L300.656 -450.36"/>
   </g>
   <g>
    <path fill="#000" d="M300.656 -450.36L332.944 -450.36L346.368 -455.92L369.2 -478.752L374.76 -492.176L374.76 -524.464L369.2 -537.888L346.368 -560.72L332.944 -566.28L300.656 -566.28L287.232 -560.72L264.4 -537.888L258.84 -524.464L258.84 -492.176L264.4 -478.752L287.232 -455.92L300.656 -450.36M316.8 -461.952L316.8 -461.952A46.368 46.368 0 0 1 316.8 -554.688A46.368 46.368 0 0 1 316.8 -461.952"/>
   </g>
   <g transform="matrix(1.000000,0.000000,0.000000,1.000000,443.520000,-508.320000)"/>
   <g>
    <path stroke="#f00" d="M427.376 -450.36L459.664 -450.36L473.088 -455.92L495.92 -478.752L501.48 -492.176L501.48 -524.464L495.92 -537.888L473.088 -560.72L459.664 -566.28L427.376 -566.28L413.952 -560.72L391.12 -537.888L385.56 -524.464L385.56 -492.176L391.12 -478.752L413.952 -455.92L427.376 -450.36"/>
   </g>
   <g>
    <path fill="#000" d="M427.376 -450.36L459.664 -450.36L473.088 -455.92L495.92 -478.752L501.48 -492.176L501.48 -524.464L495.92 -537.888L473.088 -560.72L459.664 -566.28L427.376 -566.28L413.952 -560.72L391.12 -537.888L385.56 -524.464L385.56 -492.176L391.12 -478.752L413.952 -455.92L427.376 -450.36M443.52 -461.952L443.52 -461.952A46.368 46.368 0 0 1 443.52 -554.688A46.368 46.368 0 0 1 443.52 -461.952"/>
   </g>
   <g transform="matrix(1.000000,0.000000,0.000000,1.000000,570.240000,-508.320000)"/>
   <g>
    <path stroke="#f00" d="M554.096 -450.36L586.384 -450.36L599.808 -455.92L622.64 -478.752L628.2 -492.176L628.2 -524.464L622.64 -537.888L599.808 -560.72L586.384 -566.28L554.096 -566.28L540.672 -560.72L517.84 -537.888L512.28 -524.464L512.28 -492.176L517.84 -478.752L540.672 -455.92L554.096 -450.36"/>
   </g>
   <g>
    <path fill="#000" d="M554.096 -450.36L586.384 -450.36L599.808 -455.92L622.64 -478.752L628.2 -492.176L628.2 -524.464L622.64 -537.888L599.808 -560.72L586.384 -566.28L554.096 -566.28L540.672 -560.72L517.84 -537.888L512.28 -524.464L512.28 -492.176L517.84 -478.752L540.672 -455.92L554.096 -450.36M570.24 -461.952L570.24 -461.952A46.368 46.368 0 0 1 570.24 -554.688A46.368 46.368 0 0 1 570.24 -461.952"/>
   </g>
   <g transform="matrix(1.000000,0.000000,0.000000,1.000000,696.960000,-508.320000)"/>
   <g>
    <path stroke="#f00" d="M680.816 -450.36L713.104 -450.36L726.528 -455.92L749.36 -478.752L754.92 -492.176L754.92 -524.464L749.36 -537.888L726.528 -560.72L713.104 -566.28L680.816 -566.28L667.392 -560.72L644.56 -537.888L639 -524.464L639 -492.176L644.56 -478.752L667.392 -455.92L680.816 -450.36"/>
   </g>
   <g>
    <path fill="#000" d="M680.816 -450.36L713.104 -450.36L726.528 -455.92L749.36 -478.752L754.92 -492.176L754.92 -524.464L749.36 -537.888L726.528 -560.72L713.104 -566.28L680.816 -566.28L667.392 -560.72L644.56 -537.888L639 -524.464L639 -492.176L644.56 -478.752L667.392 -455.92L680.816 -450.36M696.96 -461.952L696.96 -461.952A46.368 46.368 0 0 1 696.96 -554.688A46.368 46.368 0 0 1 696.96 -461.952"/>
   </g>
  </g>
 </g>
</svg>
